<svg width="83" height="27" viewBox="0 0 83 27" fill="none" xmlns="http://www.w3.org/2000/svg">
<path d="M71.22 15.7717C70.0089 15.3588 68.9079 14.9459 67.917 14.5331C66.9261 14.0927 66.0729 13.5697 65.3572 12.9642C64.6416 12.3586 64.0773 11.643 63.6644 10.8172C63.2791 9.96396 63.0864 8.93179 63.0864 7.7207C63.0864 5.38109 63.981 3.50941 65.7701 2.10564C67.5867 0.701881 70.119 0 73.3669 0C74.5505 0 75.6515 0.0825741 76.6699 0.247722C77.6883 0.412872 78.5553 0.674357 79.271 1.03218C80.0141 1.36248 80.5922 1.80287 81.005 2.35337C81.4179 2.87634 81.6243 3.49564 81.6243 4.21129C81.6243 4.92693 81.4592 5.54624 81.1289 6.06921C80.7986 6.56466 80.3995 6.99129 79.9316 7.34911C79.326 6.96376 78.5141 6.63347 77.4956 6.35822C76.4772 6.05545 75.3625 5.90406 74.1514 5.90406C72.9128 5.90406 72.0044 6.08297 71.4264 6.44079C70.8484 6.77109 70.5594 7.19773 70.5594 7.7207C70.5594 8.13357 70.7383 8.47763 71.0961 8.75287C71.454 9.0006 71.9907 9.23456 72.7063 9.45476L74.8945 10.1566C77.4819 10.9824 79.4637 12.0421 80.8399 13.3357C82.2437 14.6019 82.9455 16.3359 82.9455 18.5379C82.9455 20.8775 82.0235 22.7767 80.1793 24.2356C78.3351 25.6668 75.624 26.3825 72.0457 26.3825C70.7796 26.3825 69.596 26.2724 68.495 26.0522C67.4216 25.8595 66.472 25.5705 65.6462 25.1852C64.848 24.7723 64.2149 24.2768 63.747 23.6988C63.3066 23.0933 63.0864 22.4052 63.0864 21.6345C63.0864 20.8362 63.3204 20.1619 63.7883 19.6114C64.2562 19.0334 64.7654 18.593 65.3159 18.2902C66.0866 18.8957 67.0225 19.4187 68.1235 19.8591C69.252 20.2995 70.4768 20.5197 71.798 20.5197C73.1467 20.5197 74.0963 20.3133 74.6468 19.9004C75.1973 19.4875 75.4726 19.0058 75.4726 18.4554C75.4726 17.9049 75.2524 17.492 74.812 17.2167C74.3716 16.914 73.7523 16.625 72.9541 16.3497L71.22 15.7717Z" fill="url(#paint0_linear_205_35)"/>
<path d="M44.124 4.9337C44.124 3.75013 44.4681 2.81429 45.1562 2.12617C45.8443 1.43805 46.7802 1.09399 47.9637 1.09399H61.5885C61.7812 1.39677 61.9463 1.79587 62.0839 2.29132C62.2491 2.78677 62.3317 3.30974 62.3317 3.86023C62.3317 4.90617 62.0977 5.64934 61.6298 6.08974C61.1894 6.53013 60.5976 6.75033 59.8544 6.75033H51.1428V10.59H60.4324C60.6251 10.8928 60.7903 11.2919 60.9279 11.7874C61.093 12.2553 61.1756 12.7645 61.1756 13.315C61.1756 14.3609 60.9554 15.1041 60.515 15.5445C60.0746 15.9849 59.4828 16.2051 58.7397 16.2051H51.1428V20.5402H61.7536C61.9463 20.843 62.1115 21.2421 62.2491 21.7376C62.4142 22.233 62.4968 22.756 62.4968 23.3065C62.4968 24.3524 62.2628 25.1093 61.7949 25.5773C61.3545 26.0177 60.7627 26.2379 60.0196 26.2379H47.9637C46.7802 26.2379 45.8443 25.8938 45.1562 25.2057C44.4681 24.5176 44.124 23.5817 44.124 22.3982V4.9337Z" fill="url(#paint1_linear_205_35)"/>
<path d="M0 5.29844C0 4.11488 0.344061 3.17904 1.03218 2.49092C1.7203 1.8028 2.65614 1.45874 3.83971 1.45874H17.4645C17.6571 1.76151 17.8223 2.16062 17.9599 2.65607C18.1251 3.15151 18.2076 3.67448 18.2076 4.22498C18.2076 5.27092 17.9737 6.01409 17.5058 6.45448C17.0654 6.89488 16.4736 7.11508 15.7304 7.11508H7.01881V10.9548H16.3084C16.5011 11.2576 16.6662 11.6567 16.8039 12.1521C16.969 12.62 17.0516 13.1292 17.0516 13.6797C17.0516 14.7257 16.8314 15.4688 16.391 15.9092C15.9506 16.3496 15.3588 16.5698 14.6157 16.5698H7.01881V20.905H17.6296C17.8223 21.2078 17.9874 21.6069 18.1251 22.1023C18.2902 22.5978 18.3728 23.1207 18.3728 23.6712C18.3728 24.7172 18.1388 25.4741 17.6709 25.942C17.2305 26.3824 16.6387 26.6026 15.8956 26.6026H3.83971C2.65614 26.6026 1.7203 26.2585 1.03218 25.5704C0.344061 24.8823 0 23.9465 0 22.7629V5.29844Z" fill="url(#paint2_linear_205_35)"/>
<path d="M35.9314 25.0474C35.5461 25.3777 34.9405 25.6667 34.1148 25.9144C33.3166 26.1621 32.4358 26.286 31.4724 26.286C30.3164 26.286 29.3255 26.1208 28.4997 25.7905C27.674 25.4327 27.1097 24.951 26.807 24.3455C26.5042 23.7124 26.1326 22.9004 25.6922 21.9096C25.2518 20.8911 24.7839 19.7626 24.2884 18.524C23.8205 17.2854 23.3251 15.978 22.8021 14.6017C22.3067 13.198 21.825 11.7804 21.3571 10.3492C20.8891 8.91786 20.4487 7.5141 20.0359 6.13786C19.623 4.76163 19.2652 3.46796 18.9624 2.25687C19.3477 1.87153 19.8982 1.52747 20.6139 1.22469C21.3571 0.894397 22.1415 0.729248 22.9673 0.729248C23.9857 0.729248 24.8114 0.949446 25.4445 1.38984C26.1051 1.80271 26.5868 2.58717 26.8895 3.74321C27.6327 6.44064 28.3759 9.02796 29.119 11.5052C29.8897 13.9549 30.688 16.5147 31.5137 19.1846H31.7614C32.5046 16.5973 33.2615 13.776 34.0322 10.7207C34.8304 7.66549 35.5874 4.624 36.303 1.59628C36.7984 1.34856 37.3214 1.14212 37.8719 0.97697C38.4499 0.811822 39.0968 0.729248 39.8124 0.729248C40.8308 0.729248 41.6979 0.963209 42.4135 1.43113C43.1291 1.87153 43.487 2.61469 43.487 3.66063C43.487 4.26618 43.3356 5.14697 43.0328 6.30301C42.7576 7.45905 42.386 8.76648 41.9181 10.2253C41.4777 11.6566 40.9684 13.1567 40.3904 14.7256C39.8399 16.2945 39.2757 17.7808 38.6977 19.1846C38.1472 20.5608 37.6242 21.7857 37.1287 22.8592C36.6333 23.9051 36.2342 24.6345 35.9314 25.0474Z" fill="url(#paint3_linear_205_35)"/>
<defs>
<linearGradient id="paint0_linear_205_35" x1="63.1185" y1="4.17517" x2="55.9363" y2="23.1101" gradientUnits="userSpaceOnUse">
<stop offset="0.0723327" stop-color="#01A199"/>
<stop offset="0.0738086" stop-color="#01B5AC"/>
<stop offset="0.391193" stop-color="#01B5AC"/>
<stop offset="0.403304" stop-color="#01A199"/>
</linearGradient>
<linearGradient id="paint1_linear_205_35" x1="41.7863" y1="13.0552" x2="64.6388" y2="13.0552" gradientUnits="userSpaceOnUse">
<stop offset="0.409233" stop-color="#01B5AC"/>
<stop offset="0.410167" stop-color="#019D95"/>
</linearGradient>
<linearGradient id="paint2_linear_205_35" x1="-2.33769" y1="13.4199" x2="20.5148" y2="13.4199" gradientUnits="userSpaceOnUse">
<stop offset="0.410167" stop-color="#2F2F2F"/>
<stop offset="0.410267"/>
</linearGradient>
<linearGradient id="paint3_linear_205_35" x1="2.33355" y1="25.873" x2="62.4029" y2="39.5845" gradientUnits="userSpaceOnUse">
<stop offset="0.441667" stop-color="#009E95"/>
<stop offset="0.441767" stop-color="#01B5AC"/>
<stop offset="1" stop-color="#01B5AC"/>
</linearGradient>
</defs>
</svg>
