<svg width="93" height="135" viewBox="0 0 93 135" fill="none" xmlns="http://www.w3.org/2000/svg">
<path d="M2 46.5001H91" stroke="#ED3237" stroke-width="3.081" stroke-miterlimit="10" stroke-linecap="round" stroke-linejoin="round"/>
<path d="M46.4998 2V91" stroke="#ED3237" stroke-width="3.081" stroke-miterlimit="10" stroke-linecap="round" stroke-linejoin="round"/>
<path d="M75.9622 79.798C67.3691 71.2049 62.1518 59.5428 62.1518 46.3463C62.1518 33.3032 67.3691 21.4876 75.9622 12.8945" stroke="#ED3237" stroke-width="3.081" stroke-miterlimit="10" stroke-linecap="round" stroke-linejoin="round"/>
<path d="M17.1914 13.0482C25.7845 21.6413 31.0018 33.4568 31.0018 46.4999C31.0018 59.543 25.7845 71.3586 17.1914 79.9517" stroke="#ED3237" stroke-width="3.081" stroke-miterlimit="10" stroke-linecap="round" stroke-linejoin="round"/>
<path d="M46.5 91C71.0767 91 91 71.0767 91 46.5C91 21.9233 71.0767 2 46.5 2C21.9233 2 2 21.9233 2 46.5C2 71.0767 21.9233 91 46.5 91Z" stroke="#ED3237" stroke-width="3.081" stroke-miterlimit="10" stroke-linecap="round" stroke-linejoin="round"/>
<path d="M4.64396 129V115.32H10.021C10.8886 115.32 11.617 115.497 12.206 115.852C12.795 116.207 13.2383 116.666 13.536 117.229C13.8336 117.787 13.9825 118.376 13.9825 118.996C13.9825 119.75 13.7956 120.396 13.422 120.934C13.0546 121.473 12.5575 121.84 11.9305 122.036L11.9115 121.571C12.7855 121.786 13.4568 122.207 13.9255 122.834C14.3941 123.455 14.6285 124.18 14.6285 125.01C14.6285 125.814 14.467 126.514 14.144 127.109C13.8273 127.705 13.3618 128.17 12.7475 128.506C12.1395 128.835 11.4016 129 10.534 129H4.64396ZM6.65797 127.109H10.23C10.6796 127.109 11.0818 127.024 11.4365 126.853C11.7975 126.682 12.0793 126.438 12.282 126.121C12.491 125.798 12.5955 125.415 12.5955 124.972C12.5955 124.56 12.5036 124.19 12.32 123.86C12.1426 123.525 11.883 123.262 11.541 123.072C11.2053 122.876 10.8095 122.777 10.3535 122.777H6.65797V127.109ZM6.65797 120.906H9.99246C10.3598 120.906 10.6891 120.833 10.9805 120.687C11.2781 120.535 11.5125 120.32 11.6835 120.041C11.8608 119.756 11.9495 119.414 11.9495 119.016C11.9495 118.483 11.7721 118.046 11.4175 117.704C11.0628 117.362 10.5878 117.191 9.99246 117.191H6.65797V120.906ZM19.4165 129.285C18.6565 129.285 18.02 129.146 17.507 128.867C16.994 128.582 16.6045 128.208 16.3385 127.746C16.0788 127.277 15.949 126.764 15.949 126.207C15.949 125.688 16.0408 125.232 16.2245 124.839C16.4081 124.446 16.6805 124.114 17.0415 123.841C17.4025 123.563 17.8458 123.338 18.3715 123.167C18.8275 123.034 19.3436 122.917 19.92 122.815C20.4963 122.714 21.1011 122.619 21.7345 122.53C22.3741 122.442 23.0075 122.353 23.6345 122.264L22.9125 122.663C22.9251 121.859 22.7541 121.264 22.3995 120.877C22.0511 120.485 21.4495 120.288 20.5945 120.288C20.0561 120.288 19.5621 120.415 19.1125 120.668C18.6628 120.915 18.3493 121.327 18.172 121.903L16.3195 121.333C16.5728 120.453 17.0541 119.753 17.7635 119.234C18.4791 118.715 19.4291 118.455 20.6135 118.455C21.5318 118.455 22.3298 118.613 23.0075 118.93C23.6915 119.24 24.1918 119.734 24.5085 120.412C24.6731 120.748 24.7745 121.102 24.8125 121.476C24.8505 121.85 24.8695 122.252 24.8695 122.682V129H23.112V126.653L23.454 126.957C23.0296 127.743 22.4881 128.329 21.8295 128.715C21.1771 129.095 20.3728 129.285 19.4165 129.285ZM19.768 127.66C20.3316 127.66 20.8161 127.562 21.2215 127.366C21.6268 127.163 21.953 126.907 22.2 126.596C22.447 126.286 22.6085 125.963 22.6845 125.627C22.7921 125.323 22.8523 124.981 22.865 124.601C22.884 124.221 22.8935 123.917 22.8935 123.689L23.5395 123.927C22.9125 124.022 22.3425 124.107 21.8295 124.183C21.3165 124.259 20.851 124.335 20.433 124.411C20.0213 124.481 19.654 124.567 19.331 124.668C19.0586 124.763 18.8148 124.877 18.5995 125.01C18.3905 125.143 18.2226 125.304 18.096 125.494C17.9756 125.684 17.9155 125.916 17.9155 126.188C17.9155 126.454 17.982 126.701 18.115 126.929C18.248 127.151 18.4506 127.328 18.723 127.461C18.9953 127.594 19.3436 127.66 19.768 127.66ZM31.2598 129.276C30.0122 129.276 28.9957 129 28.2103 128.449C27.425 127.898 26.9437 127.122 26.7663 126.121L28.7993 125.808C28.926 126.34 29.2173 126.761 29.6733 127.071C30.1357 127.375 30.7088 127.527 31.3928 127.527C32.0135 127.527 32.498 127.401 32.8463 127.147C33.201 126.894 33.3783 126.546 33.3783 126.102C33.3783 125.843 33.315 125.634 33.1883 125.475C33.068 125.311 32.8115 125.156 32.4188 125.01C32.0262 124.864 31.4277 124.684 30.6233 124.468C29.743 124.24 29.0432 123.997 28.5238 123.737C28.0108 123.471 27.6435 123.164 27.4218 122.815C27.2065 122.461 27.0988 122.033 27.0988 121.533C27.0988 120.912 27.2635 120.371 27.5928 119.908C27.9222 119.446 28.3845 119.088 28.9798 118.835C29.5815 118.582 30.2845 118.455 31.0888 118.455C31.8742 118.455 32.574 118.578 33.1883 118.825C33.8027 119.072 34.2998 119.424 34.6798 119.88C35.0598 120.33 35.2878 120.858 35.3638 121.466L33.3308 121.837C33.2612 121.343 33.03 120.953 32.6373 120.668C32.2447 120.383 31.7348 120.228 31.1078 120.203C30.5062 120.178 30.0185 120.279 29.6448 120.507C29.2712 120.729 29.0843 121.036 29.0843 121.428C29.0843 121.656 29.154 121.85 29.2933 122.008C29.439 122.166 29.7177 122.318 30.1293 122.464C30.541 122.61 31.149 122.784 31.9533 122.986C32.8147 123.208 33.4987 123.455 34.0053 123.727C34.512 123.993 34.873 124.313 35.0883 124.687C35.31 125.054 35.4208 125.501 35.4208 126.026C35.4208 127.04 35.0503 127.835 34.3093 128.411C33.5747 128.987 32.5582 129.276 31.2598 129.276ZM41.5984 129.285C40.642 129.285 39.8155 129.048 39.1189 128.572C38.4285 128.097 37.8934 127.451 37.5134 126.634C37.1397 125.811 36.9529 124.886 36.9529 123.86C36.9529 122.828 37.1429 121.907 37.5229 121.096C37.9029 120.279 38.4412 119.636 39.1379 119.167C39.8409 118.692 40.6737 118.455 41.6364 118.455C42.6054 118.455 43.4192 118.692 44.0779 119.167C44.7429 119.636 45.2432 120.279 45.5789 121.096C45.9209 121.913 46.0919 122.834 46.0919 123.86C46.0919 124.886 45.9209 125.808 45.5789 126.625C45.2369 127.442 44.7334 128.091 44.0684 128.572C43.4034 129.048 42.58 129.285 41.5984 129.285ZM41.8739 127.489C42.5262 127.489 43.0582 127.334 43.4699 127.024C43.8815 126.714 44.1824 126.286 44.3724 125.741C44.5624 125.197 44.6574 124.57 44.6574 123.86C44.6574 123.151 44.5592 122.524 44.3629 121.979C44.1729 121.435 43.8752 121.01 43.4699 120.706C43.0709 120.402 42.561 120.25 41.9404 120.25C41.2817 120.25 40.7402 120.412 40.3159 120.735C39.8915 121.058 39.5749 121.492 39.3659 122.036C39.1632 122.581 39.0619 123.189 39.0619 123.86C39.0619 124.538 39.1632 125.152 39.3659 125.703C39.5749 126.248 39.8852 126.682 40.2969 127.005C40.7149 127.328 41.2405 127.489 41.8739 127.489ZM44.4294 133.56V126.121H44.6574V118.74H46.4244V133.56H44.4294ZM52.9489 129.276C52.2396 129.276 51.6443 129.162 51.1629 128.933C50.6816 128.705 50.2889 128.408 49.9849 128.04C49.6873 127.667 49.4593 127.261 49.3009 126.824C49.1426 126.387 49.0349 125.96 48.9779 125.542C48.9209 125.124 48.8924 124.757 48.8924 124.44V118.74H50.9064V123.784C50.9064 124.183 50.9381 124.595 51.0014 125.019C51.0711 125.437 51.1978 125.827 51.3814 126.188C51.5714 126.549 51.8343 126.84 52.1699 127.062C52.5119 127.284 52.9553 127.394 53.4999 127.394C53.8546 127.394 54.1903 127.337 54.5069 127.223C54.8236 127.103 55.0991 126.913 55.3334 126.653C55.5741 126.394 55.7609 126.052 55.8939 125.627C56.0333 125.203 56.1029 124.687 56.1029 124.079L57.3379 124.544C57.3379 125.475 57.1638 126.299 56.8154 127.014C56.4671 127.724 55.9668 128.278 55.3144 128.677C54.6621 129.076 53.8736 129.276 52.9489 129.276ZM56.3404 129V126.036H56.1029V118.74H58.1074V129H56.3404ZM65.3224 129.285C64.3027 129.285 63.4066 129.063 62.6339 128.62C61.8676 128.17 61.2691 127.546 60.8384 126.748C60.4141 125.944 60.2019 125.013 60.2019 123.955C60.2019 122.834 60.4109 121.862 60.8289 121.039C61.2532 120.216 61.8422 119.579 62.5959 119.129C63.3496 118.68 64.2267 118.455 65.2274 118.455C66.2724 118.455 67.1622 118.699 67.8969 119.187C68.6316 119.668 69.1794 120.355 69.5404 121.248C69.9077 122.141 70.0534 123.202 69.9774 124.43H67.9919V123.708C67.9792 122.518 67.7512 121.637 67.3079 121.067C66.8709 120.497 66.2027 120.212 65.3034 120.212C64.3091 120.212 63.5617 120.526 63.0614 121.153C62.5611 121.78 62.3109 122.686 62.3109 123.87C62.3109 124.997 62.5611 125.871 63.0614 126.492C63.5617 127.106 64.2837 127.413 65.2274 127.413C65.8481 127.413 66.3832 127.274 66.8329 126.995C67.2889 126.71 67.6436 126.305 67.8969 125.779L69.8444 126.397C69.4454 127.315 68.8406 128.028 68.0299 128.534C67.2192 129.035 66.3167 129.285 65.3224 129.285ZM61.6649 124.43V122.882H68.9894V124.43H61.6649ZM77.9798 129C77.3338 129.127 76.7005 129.181 76.0798 129.162C75.4591 129.143 74.905 129.022 74.4173 128.8C73.9296 128.579 73.5623 128.23 73.3153 127.755C73.0936 127.331 72.9733 126.9 72.9543 126.463C72.9416 126.02 72.9353 125.52 72.9353 124.962V115.89H74.9303V124.867C74.9303 125.279 74.9335 125.637 74.9398 125.941C74.9525 126.245 75.019 126.501 75.1393 126.71C75.3673 127.103 75.7283 127.328 76.2223 127.385C76.7226 127.436 77.3085 127.413 77.9798 127.318V129ZM70.9688 120.336V118.74H77.9798V120.336H70.9688ZM84.2296 129.285C83.21 129.285 82.3138 129.063 81.5411 128.62C80.7748 128.17 80.1763 127.546 79.7456 126.748C79.3213 125.944 79.1091 125.013 79.1091 123.955C79.1091 122.834 79.3181 121.862 79.7361 121.039C80.1605 120.216 80.7495 119.579 81.5031 119.129C82.2568 118.68 83.134 118.455 84.1346 118.455C85.1796 118.455 86.0695 118.699 86.8041 119.187C87.5388 119.668 88.0866 120.355 88.4476 121.248C88.815 122.141 88.9606 123.202 88.8846 124.43H86.8991V123.708C86.8865 122.518 86.6585 121.637 86.2151 121.067C85.7781 120.497 85.11 120.212 84.2106 120.212C83.2163 120.212 82.469 120.526 81.9686 121.153C81.4683 121.78 81.2181 122.686 81.2181 123.87C81.2181 124.997 81.4683 125.871 81.9686 126.492C82.469 127.106 83.191 127.413 84.1346 127.413C84.7553 127.413 85.2905 127.274 85.7401 126.995C86.1961 126.71 86.5508 126.305 86.8041 125.779L88.7516 126.397C88.3526 127.315 87.7478 128.028 86.9371 128.534C86.1265 129.035 85.224 129.285 84.2296 129.285ZM80.5721 124.43V122.882H87.8966V124.43H80.5721Z" fill="#ED3237"/>
</svg>
