<svg width="93" height="135" viewBox="0 0 93 135" fill="none" xmlns="http://www.w3.org/2000/svg">
<path d="M91 46.5C91 48.9705 90.8005 51.395 90.4016 53.7581C89.3121 60.4945 86.6881 66.7245 82.8979 72.0798V72.0952C76.3917 81.3481 66.4329 88.0078 54.909 90.2021C52.1776 90.7238 49.3695 91 46.5 91C45.7328 91 44.9655 90.9847 44.2136 90.9386H44.1062C43.385 90.8926 42.6638 90.8465 41.9426 90.7698C41.8812 90.7698 41.8198 90.7545 41.7583 90.7545C41.1598 90.6931 40.5614 90.6164 39.9629 90.5243C39.7942 90.4936 39.61 90.4783 39.4412 90.4476C38.9809 90.3709 38.5359 90.2941 38.0755 90.2021C37.3543 90.064 36.6331 89.9105 35.9119 89.7264C35.6204 89.665 35.3135 89.5883 35.0219 89.5115C34.6229 89.4041 34.224 89.2814 33.825 89.1586C33.4721 89.0512 33.1038 88.9438 32.7355 88.821C32.3671 88.7138 32.0143 88.5909 31.6614 88.4528C31.3698 88.3453 31.0783 88.2379 30.7867 88.1305C30.6179 88.0845 30.4645 88.0231 30.2957 87.9464C29.6973 87.7009 29.0988 87.4553 28.5157 87.1943C27.7178 86.8414 26.9352 86.4578 26.1526 86.0588C25.7997 85.8747 25.4621 85.6905 25.1092 85.4911C24.7102 85.2762 24.3266 85.0614 23.9429 84.8312C23.5133 84.5704 23.0836 84.3248 22.654 84.0486C22.5312 83.9719 22.4085 83.8798 22.2856 83.8031C21.6871 83.4195 21.0887 83.0052 20.5209 82.5909C20.0299 82.2533 19.5542 81.885 19.0938 81.5321C19.0478 81.5014 19.0171 81.4707 18.9711 81.4248C18.5568 81.1026 18.1578 80.7803 17.7742 80.4428C17.5747 80.2893 17.3752 80.1205 17.1911 79.9517C17.0376 79.8136 16.8995 79.6909 16.7461 79.5528C16.7154 79.5374 16.7 79.5221 16.6847 79.5067C16.6387 79.4607 16.5926 79.4147 16.5466 79.384C16.5159 79.3686 16.5006 79.3379 16.4852 79.3226C16.4545 79.3072 16.4392 79.2919 16.4238 79.2612C16.2243 79.0924 16.0402 78.9236 15.8561 78.7395C15.6566 78.5553 15.4725 78.3865 15.3037 78.2024C15.273 78.1717 15.2423 78.141 15.2269 78.1103C15.0735 77.9569 14.92 77.8188 14.7666 77.6807C14.5338 77.4479 14.319 77.1858 14.0913 76.9449C14.0811 76.9345 14.0707 76.9239 14.0606 76.9134C14.0618 76.9141 14.0629 76.9148 14.0641 76.9154C13.5513 76.3716 13.0349 75.8338 12.5414 75.2562C12.1732 74.8266 11.8049 74.3815 11.452 73.9212C10.9611 73.2921 10.4854 72.6629 10.0249 72.0031C6.25006 66.6171 3.64144 60.3564 2.55195 53.574C2.18414 51.2722 2 48.9091 2 46.5C2 37.0322 4.94621 28.255 10.01 21.0429C14.905 14.015 21.7948 8.47552 29.8509 5.23776C34.9914 3.13552 40.6076 2 46.5 2C52.3771 2 57.9933 3.13552 63.1184 5.22241C66.9853 6.7569 70.576 8.84379 73.8138 11.391C74.6731 12.0509 75.5171 12.7567 76.3303 13.5086H76.3457C77.159 14.2452 77.9415 15.0124 78.6934 15.8103C79.8443 16.9919 80.9031 18.2348 81.9005 19.5545C82.2228 19.9841 82.5603 20.4291 82.8672 20.8741V20.8895C82.8672 20.8895 82.8672 20.8741 82.8826 20.8895C83.6498 21.9483 84.371 23.0684 85.0155 24.2193C85.2457 24.6029 85.4605 24.9866 85.6755 25.3855C85.9364 25.8612 86.1819 26.3216 86.3967 26.7972C86.5655 27.1195 86.7189 27.4417 86.8724 27.7793C87.1179 28.2703 87.3327 28.7614 87.5322 29.2524C87.7777 29.8048 87.9926 30.3572 88.192 30.925C88.3608 31.3547 88.5143 31.7843 88.6524 32.2293C88.7752 32.5822 88.8979 32.9505 89.0208 33.3341C89.1743 33.8252 89.3124 34.3162 89.4505 34.8072C89.5425 35.1602 89.6346 35.4978 89.7113 35.8507C89.9877 36.9402 90.2177 38.0297 90.3865 39.1498C90.4479 39.4721 90.4939 39.7943 90.54 40.1319C90.6167 40.6229 90.6781 41.1293 90.7241 41.6203C90.7548 41.8352 90.7855 42.05 90.8008 42.2495C90.8469 42.7865 90.8929 43.3236 90.9082 43.876C90.9389 44.1062 90.9543 44.321 90.9543 44.5512C90.9847 45.1957 91 45.8402 91 46.5Z" stroke="#01A889" stroke-width="3.081" stroke-miterlimit="10" stroke-linecap="round" stroke-linejoin="round"/>
<path d="M43.7943 34.3361L34.3488 41.1986C32.7353 42.3708 32.0603 44.4487 32.6765 46.3454L36.2844 57.4493C36.9007 59.346 38.6682 60.6301 40.6626 60.6301H52.3379C54.3322 60.6301 56.0996 59.3459 56.716 57.4493L60.3239 46.3454C60.9402 44.4487 60.2652 42.3708 58.6516 41.1986L49.2061 34.3361C47.5926 33.1639 45.4078 33.1639 43.7943 34.3361Z" fill="#01A889"/>
<path d="M62.2745 6.87966L49.3695 13.2017C48.4642 13.6314 47.4821 13.8462 46.5 13.8309C45.6254 13.8157 44.7507 13.616 43.9221 13.2324L30.7102 6.94103C30.0657 6.63414 29.7281 5.91293 29.8509 5.23776C34.9914 3.13552 40.6076 2 46.5 2C52.3771 2 57.9933 3.13552 63.1185 5.22241C63.2412 5.88224 62.919 6.57276 62.2745 6.87966Z" fill="#01A889"/>
<path d="M38.0757 90.202C37.3545 90.0639 36.6333 89.9105 35.9121 89.7263C35.6205 89.665 35.3136 89.5882 35.0221 89.5115C34.6231 89.4041 34.2241 89.2813 33.8252 89.1586C33.4722 89.0512 33.1039 88.9438 32.7357 88.821C32.3672 88.7137 32.0145 88.5908 31.6615 88.4527C31.37 88.3453 31.0784 88.2379 30.7869 88.1305C30.6181 88.0845 30.4646 88.0231 30.2958 87.9463C29.6974 87.7008 29.0989 87.4553 28.5158 87.1943C27.7148 86.8408 26.9303 86.4568 26.1549 86.0572C25.8021 85.8763 25.4561 85.6854 25.1088 85.4955C24.7165 85.2796 24.3278 85.0583 23.9425 84.8307C23.5093 84.5762 23.0778 84.3204 22.654 84.0517C22.5284 83.9716 22.4071 83.886 22.2823 83.8046C17.48 80.6899 13.3071 76.6866 10.0252 72.0029C10.3167 71.4812 10.9152 71.159 11.575 71.2357L25.9071 72.985C26.8891 73.1077 27.8098 73.4453 28.6078 73.9824C29.3597 74.4888 30.0041 75.1486 30.4798 75.9312L34.8071 82.9745L38.1676 88.4679C38.5053 89.0205 38.4593 89.711 38.0757 90.202Z" fill="#01A889"/>
<path d="M14.5214 39.3954C14.3066 40.2854 13.8922 41.1294 13.3091 41.8659L4.25569 53.0676C3.82603 53.5894 3.13552 53.7735 2.55241 53.574C2.18414 51.2723 2 48.9092 2 46.5001C2 37.0323 4.94621 28.2551 10.01 21.043C10.6545 21.1197 11.2222 21.5801 11.3603 22.2552L14.5521 36.572C14.7669 37.508 14.7516 38.4747 14.5214 39.3954Z" fill="#01A889"/>
<path d="M82.898 72.0798V72.0951C76.3917 81.3481 66.433 88.0077 54.909 90.202C54.51 89.711 54.464 89.0051 54.8016 88.4374L62.4586 75.9467C62.9495 75.1488 63.5942 74.4889 64.3614 73.9825C65.1593 73.4608 66.0647 73.1232 67.0314 73.0005L81.3174 71.2512C81.9926 71.1744 82.6064 71.5274 82.898 72.0798Z" fill="#01A889"/>
<path d="M90.9998 46.5001C90.9998 48.9707 90.8003 51.3951 90.4014 53.7582C89.849 53.881 89.2505 53.6969 88.8669 53.2212L80.8108 43.247L79.6907 41.866C78.4938 40.3929 78.0334 38.4441 78.4631 36.572L80.0896 29.2832V29.2679L81.6855 22.0712C81.8083 21.4727 82.284 21.0125 82.8671 20.8896C82.8671 20.8743 82.8671 20.8743 82.8824 20.8896C83.6496 21.9484 84.3708 23.0686 85.0153 24.2194C85.2455 24.6031 85.4603 24.9867 85.6753 25.3857C85.9362 25.8613 86.1817 26.3217 86.3965 26.7974C86.5653 27.1196 86.7188 27.4419 86.8722 27.7794C87.1177 28.2705 87.3326 28.7615 87.532 29.2526C87.7776 29.805 87.9924 30.3574 88.1919 30.9251C88.3607 31.3548 88.5141 31.7845 88.6522 32.2295C88.775 32.5824 88.8977 32.9507 89.0206 33.3343C89.1741 33.8253 89.3122 34.3163 89.4503 34.8074C89.5424 35.1603 89.6344 35.4979 89.7112 35.8508C89.9875 36.9403 90.2175 38.0298 90.3863 39.15C90.4477 39.4722 90.4937 39.7944 90.5398 40.132C90.6165 40.6231 90.6779 41.1294 90.7239 41.6205C90.7546 41.8353 90.7853 42.0501 90.8006 42.2496C90.8467 42.7867 90.8927 43.3238 90.9081 43.8762C90.9387 44.1063 90.9541 44.3212 90.9541 44.5513C90.9845 45.1958 90.9998 45.8403 90.9998 46.5001Z" fill="#01A889"/>
<path d="M46.5 13.8342V33.4567" stroke="#01A889" stroke-width="3.081" stroke-miterlimit="10" stroke-linecap="round" stroke-linejoin="round"/>
<path d="M60.2931 43.416L78.4362 39.3287" stroke="#01A889" stroke-width="3.081" stroke-miterlimit="10" stroke-linecap="round" stroke-linejoin="round"/>
<path d="M55.0782 59.7231L64.3572 73.9868" stroke="#01A889" stroke-width="3.081" stroke-miterlimit="10" stroke-linecap="round" stroke-linejoin="round"/>
<path d="M37.8972 59.7054L28.6126 73.9864" stroke="#01A889" stroke-width="3.081" stroke-miterlimit="10" stroke-linecap="round" stroke-linejoin="round"/>
<path d="M32.692 43.46L14.5273 39.3997" stroke="#01A889" stroke-width="3.081" stroke-miterlimit="10" stroke-linecap="round" stroke-linejoin="round"/>
<path d="M14.5409 129V115.32H22.6444V117.305H16.5264V121.162H21.5044V123.157H16.5264V129H14.5409ZM28.2229 129.276C27.5135 129.276 26.9182 129.162 26.4369 128.933C25.9555 128.705 25.5629 128.408 25.2589 128.04C24.9612 127.667 24.7332 127.261 24.5749 126.824C24.4165 126.387 24.3089 125.96 24.2519 125.542C24.1949 125.124 24.1664 124.757 24.1664 124.44V118.74H26.1804V123.784C26.1804 124.183 26.212 124.595 26.2754 125.019C26.345 125.437 26.4717 125.827 26.6554 126.188C26.8454 126.549 27.1082 126.84 27.4439 127.062C27.7859 127.284 28.2292 127.394 28.7739 127.394C29.1285 127.394 29.4642 127.337 29.7809 127.223C30.0975 127.103 30.373 126.913 30.6074 126.653C30.848 126.394 31.0349 126.052 31.1679 125.627C31.3072 125.203 31.3769 124.687 31.3769 124.079L32.6119 124.544C32.6119 125.475 32.4377 126.299 32.0894 127.014C31.741 127.724 31.2407 128.278 30.5884 128.677C29.936 129.076 29.1475 129.276 28.2229 129.276ZM31.6144 129V126.036H31.3769V118.74H33.3814V129H31.6144ZM41.9168 129C41.2708 129.127 40.6375 129.181 40.0168 129.162C39.3962 129.143 38.842 129.022 38.3543 128.8C37.8667 128.579 37.4993 128.23 37.2523 127.755C37.0307 127.331 36.9103 126.9 36.8913 126.463C36.8787 126.02 36.8723 125.52 36.8723 124.962V115.89H38.8673V124.867C38.8673 125.279 38.8705 125.637 38.8768 125.941C38.8895 126.245 38.956 126.501 39.0763 126.71C39.3043 127.103 39.6653 127.328 40.1593 127.385C40.6597 127.436 41.2455 127.413 41.9168 127.318V129ZM34.9058 120.336V118.74H41.9168V120.336H34.9058ZM48.1666 129.285C47.147 129.285 46.2508 129.063 45.4781 128.62C44.7118 128.17 44.1133 127.546 43.6826 126.748C43.2583 125.944 43.0461 125.013 43.0461 123.955C43.0461 122.834 43.2551 121.862 43.6731 121.039C44.0975 120.216 44.6865 119.579 45.4401 119.129C46.1938 118.68 47.071 118.455 48.0716 118.455C49.1166 118.455 50.0065 118.699 50.7411 119.187C51.4758 119.668 52.0236 120.355 52.3846 121.248C52.752 122.141 52.8976 123.202 52.8216 124.43H50.8361V123.708C50.8235 122.518 50.5955 121.637 50.1521 121.067C49.7151 120.497 49.047 120.212 48.1476 120.212C47.1533 120.212 46.406 120.526 45.9056 121.153C45.4053 121.78 45.1551 122.686 45.1551 123.87C45.1551 124.997 45.4053 125.871 45.9056 126.492C46.406 127.106 47.128 127.413 48.0716 127.413C48.6923 127.413 49.2275 127.274 49.6771 126.995C50.1331 126.71 50.4878 126.305 50.7411 125.779L52.6886 126.397C52.2896 127.315 51.6848 128.028 50.8741 128.534C50.0635 129.035 49.161 129.285 48.1666 129.285ZM44.5091 124.43V122.882H51.8336V124.43H44.5091ZM59.7695 129.285C58.7879 129.285 57.9645 129.048 57.2995 128.572C56.6345 128.091 56.131 127.442 55.789 126.625C55.447 125.808 55.276 124.886 55.276 123.86C55.276 122.834 55.4439 121.913 55.7795 121.096C56.1215 120.279 56.6219 119.636 57.2805 119.167C57.9455 118.692 58.7625 118.455 59.7315 118.455C60.6942 118.455 61.5239 118.692 62.2205 119.167C62.9235 119.636 63.465 120.279 63.845 121.096C64.225 121.907 64.415 122.828 64.415 123.86C64.415 124.886 64.225 125.811 63.845 126.634C63.4714 127.451 62.9362 128.097 62.2395 128.572C61.5492 129.048 60.7259 129.285 59.7695 129.285ZM54.9435 129V115.32H56.9385V121.618H56.7105V129H54.9435ZM59.494 127.489C60.1274 127.489 60.6499 127.328 61.0615 127.005C61.4795 126.682 61.7899 126.248 61.9925 125.703C62.2015 125.152 62.306 124.538 62.306 123.86C62.306 123.189 62.2015 122.581 61.9925 122.036C61.7899 121.492 61.4764 121.058 61.052 120.735C60.6277 120.412 60.0862 120.25 59.4275 120.25C58.8069 120.25 58.2939 120.402 57.8885 120.706C57.4895 121.01 57.1919 121.435 56.9955 121.979C56.8055 122.524 56.7105 123.151 56.7105 123.86C56.7105 124.57 56.8055 125.197 56.9955 125.741C57.1855 126.286 57.4864 126.714 57.898 127.024C58.3097 127.334 58.8417 127.489 59.494 127.489ZM70.9681 129.285C69.9421 129.285 69.0523 129.054 68.2986 128.591C67.545 128.129 66.9623 127.493 66.5506 126.682C66.1453 125.865 65.9426 124.924 65.9426 123.86C65.9426 122.79 66.1516 121.85 66.5696 121.039C66.9876 120.222 67.5735 119.589 68.3271 119.139C69.0808 118.683 69.9611 118.455 70.9681 118.455C71.9941 118.455 72.884 118.686 73.6376 119.148C74.3913 119.611 74.974 120.247 75.3856 121.058C75.7973 121.869 76.0031 122.803 76.0031 123.86C76.0031 124.931 75.7941 125.874 75.3761 126.691C74.9645 127.502 74.3818 128.139 73.6281 128.601C72.8745 129.057 71.9878 129.285 70.9681 129.285ZM70.9681 127.413C71.9498 127.413 72.6813 127.084 73.1626 126.425C73.6503 125.76 73.8941 124.905 73.8941 123.86C73.8941 122.79 73.6471 121.935 73.1531 121.295C72.6655 120.649 71.9371 120.326 70.9681 120.326C70.3031 120.326 69.7553 120.478 69.3246 120.782C68.894 121.08 68.5741 121.495 68.3651 122.027C68.1561 122.553 68.0516 123.164 68.0516 123.86C68.0516 124.937 68.2986 125.798 68.7926 126.444C69.2866 127.09 70.0118 127.413 70.9681 127.413ZM78.2807 129V115.035H80.2662V129H78.2807Z" fill="#01A889"/>
</svg>
