<svg width="93" height="135" viewBox="0 0 93 135" fill="none" xmlns="http://www.w3.org/2000/svg">
<path d="M46.5658 71.1111H31.4664C30.4864 71.1111 29.6091 71.6698 29.1398 72.5302C24.1409 81.6969 17.4554 83.8649 15.6384 84.2068C15.404 84.2508 15.175 84.29 14.9366 84.297C-5.88343 84.9111 4.67924 57.4639 4.67924 57.4639C7.69222 48.6612 14.9622 38.3252 17.4105 35.9405C17.9145 35.4497 18.5816 35.1765 19.285 35.1765H38.2148H54.7852H73.715C74.4184 35.1765 75.0857 35.4497 75.5895 35.9405C78.0378 38.3252 85.3078 48.6612 88.3208 57.4639C88.3208 57.4639 98.8834 84.9111 78.0634 84.297C77.8249 84.2899 77.5961 84.2508 77.3616 84.2068C75.5446 83.8649 68.8591 81.6969 63.8603 72.5302C63.3911 71.6698 62.5137 71.1111 61.5336 71.1111H46.4342" stroke="#176DC4" stroke-width="3.19615" stroke-miterlimit="10"/>
<path d="M29.1705 48.721V49.892H23.079H15.6364V48.721H22.9284H29.1705Z" fill="#176DC4" stroke="#176DC4" stroke-width="3.19615" stroke-miterlimit="10" stroke-linecap="round" stroke-linejoin="round"/>
<path d="M21.8176 42.5394H22.9884V48.6309V56.0733H21.8176V48.7815V42.5394Z" fill="#176DC4" stroke="#176DC4" stroke-width="3.19615" stroke-miterlimit="10" stroke-linecap="round" stroke-linejoin="round"/>
<path d="M38.1889 65.5235C41.382 65.5235 43.9705 62.935 43.9705 59.7419C43.9705 56.5487 41.382 53.9602 38.1889 53.9602C34.9957 53.9602 32.4072 56.5487 32.4072 59.7419C32.4072 62.935 34.9957 65.5235 38.1889 65.5235Z" fill="#176DC4"/>
<path d="M54.8108 65.5235C58.0039 65.5235 60.5924 62.935 60.5924 59.7419C60.5924 56.5487 58.0039 53.9602 54.8108 53.9602C51.6177 53.9602 49.0291 56.5487 49.0291 59.7419C49.0291 62.935 51.6177 65.5235 54.8108 65.5235Z" fill="#176DC4"/>
<path d="M64.7301 52.198C66.3266 52.198 67.6209 50.9038 67.6209 49.3072C67.6209 47.7107 66.3266 46.4164 64.7301 46.4164C63.1335 46.4164 61.8392 47.7107 61.8392 49.3072C61.8392 50.9038 63.1335 52.198 64.7301 52.198Z" fill="#176DC4"/>
<path d="M76.9714 52.198C78.568 52.198 79.8622 50.9038 79.8622 49.3072C79.8622 47.7107 78.568 46.4164 76.9714 46.4164C75.3748 46.4164 74.0806 47.7107 74.0806 49.3072C74.0806 50.9038 75.3748 52.198 76.9714 52.198Z" fill="#176DC4"/>
<path d="M70.8512 57.6255C72.4477 57.6255 73.742 56.3313 73.742 54.7347C73.742 53.1381 72.4477 51.8439 70.8512 51.8439C69.2546 51.8439 67.9603 53.1381 67.9603 54.7347C67.9603 56.3313 69.2546 57.6255 70.8512 57.6255Z" fill="#176DC4"/>
<path d="M70.8512 46.8299C72.4477 46.8299 73.742 45.5357 73.742 43.9391C73.742 42.3425 72.4477 41.0483 70.8512 41.0483C69.2546 41.0483 67.9603 42.3425 67.9603 43.9391C67.9603 45.5357 69.2546 46.8299 70.8512 46.8299Z" fill="#176DC4"/>
<path d="M44.1221 29.5088V3.45345C44.1221 3.45345 44.8519 2.19695 45.9871 2.02046C46.6832 1.91235 47.532 2.21025 48.4583 3.45345V29.5088" stroke="#176DC4" stroke-width="3.19615" stroke-miterlimit="10" stroke-linecap="round" stroke-linejoin="round"/>
<path d="M22.0774 129.285C21.159 129.285 20.3135 129.127 19.5409 128.81C18.7682 128.487 18.0969 128.018 17.5269 127.404C16.9569 126.79 16.5135 126.042 16.1969 125.162C15.8802 124.282 15.7219 123.281 15.7219 122.16C15.7219 120.684 15.991 119.418 16.5294 118.36C17.0677 117.296 17.815 116.479 18.7714 115.909C19.7277 115.333 20.8297 115.044 22.0774 115.044C23.686 115.044 24.9685 115.418 25.9249 116.165C26.8875 116.913 27.543 117.945 27.8914 119.262L25.8774 119.623C25.5987 118.806 25.149 118.154 24.5284 117.666C23.9077 117.179 23.1287 116.932 22.1914 116.925C21.2224 116.919 20.4149 117.134 19.7689 117.571C19.1292 118.008 18.6479 118.623 18.3249 119.414C18.0019 120.2 17.8372 121.115 17.8309 122.16C17.8245 123.205 17.9829 124.12 18.3059 124.905C18.6289 125.684 19.1134 126.292 19.7594 126.729C20.4117 127.166 21.2224 127.388 22.1914 127.394C22.9704 127.407 23.6385 127.265 24.1959 126.967C24.7595 126.663 25.206 126.22 25.5354 125.637C25.8647 125.054 26.0769 124.339 26.1719 123.49H23.5119V121.894H28.2809C28.2935 122.008 28.303 122.16 28.3094 122.35C28.3157 122.534 28.3189 122.651 28.3189 122.701C28.3189 123.968 28.075 125.099 27.5874 126.093C27.0997 127.087 26.3904 127.869 25.4594 128.439C24.5284 129.003 23.401 129.285 22.0774 129.285ZM33.1098 129.285C32.3498 129.285 31.7133 129.146 31.2003 128.867C30.6873 128.582 30.2978 128.208 30.0318 127.746C29.7722 127.277 29.6423 126.764 29.6423 126.207C29.6423 125.688 29.7342 125.232 29.9178 124.839C30.1015 124.446 30.3738 124.114 30.7348 123.841C31.0958 123.563 31.5392 123.338 32.0648 123.167C32.5208 123.034 33.037 122.917 33.6133 122.815C34.1897 122.714 34.7945 122.619 35.4278 122.53C36.0675 122.442 36.7008 122.353 37.3278 122.264L36.6058 122.663C36.6185 121.859 36.4475 121.264 36.0928 120.877C35.7445 120.485 35.1428 120.288 34.2878 120.288C33.7495 120.288 33.2555 120.415 32.8058 120.668C32.3562 120.915 32.0427 121.327 31.8653 121.903L30.0128 121.333C30.2662 120.453 30.7475 119.753 31.4568 119.234C32.1725 118.715 33.1225 118.455 34.3068 118.455C35.2252 118.455 36.0232 118.613 36.7008 118.93C37.3848 119.24 37.8852 119.734 38.2018 120.412C38.3665 120.748 38.4678 121.102 38.5058 121.476C38.5438 121.85 38.5628 122.252 38.5628 122.682V129H36.8053V126.653L37.1473 126.957C36.723 127.743 36.1815 128.329 35.5228 128.715C34.8705 129.095 34.0662 129.285 33.1098 129.285ZM33.4613 127.66C34.025 127.66 34.5095 127.562 34.9148 127.366C35.3202 127.163 35.6463 126.907 35.8933 126.596C36.1403 126.286 36.3018 125.963 36.3778 125.627C36.4855 125.323 36.5457 124.981 36.5583 124.601C36.5773 124.221 36.5868 123.917 36.5868 123.689L37.2328 123.927C36.6058 124.022 36.0358 124.107 35.5228 124.183C35.0098 124.259 34.5443 124.335 34.1263 124.411C33.7147 124.481 33.3473 124.567 33.0243 124.668C32.752 124.763 32.5082 124.877 32.2928 125.01C32.0838 125.143 31.916 125.304 31.7893 125.494C31.669 125.684 31.6088 125.916 31.6088 126.188C31.6088 126.454 31.6753 126.701 31.8083 126.929C31.9413 127.151 32.144 127.328 32.4163 127.461C32.6887 127.594 33.037 127.66 33.4613 127.66ZM53.3227 129L53.3322 122.606C53.3322 121.865 53.1422 121.289 52.7622 120.877C52.3822 120.459 51.8819 120.25 51.2612 120.25C50.8812 120.25 50.5329 120.339 50.2162 120.516C49.9059 120.687 49.6525 120.947 49.4562 121.295C49.2662 121.637 49.1712 122.068 49.1712 122.587L48.2117 122.103C48.199 121.381 48.351 120.748 48.6677 120.203C48.9907 119.658 49.4277 119.237 49.9787 118.939C50.5297 118.635 51.1472 118.484 51.8312 118.484C52.9395 118.484 53.7977 118.816 54.4057 119.481C55.0137 120.146 55.3177 121.029 55.3177 122.131L55.3082 129H53.3227ZM41.0202 129V118.74H42.7872V121.704H43.0152V129H41.0202ZM47.1762 129L47.1857 122.644C47.1857 121.897 46.9957 121.311 46.6157 120.887C46.242 120.463 45.7385 120.25 45.1052 120.25C44.4782 120.25 43.9715 120.466 43.5852 120.896C43.2052 121.327 43.0152 121.891 43.0152 122.587L42.0652 121.979C42.0652 121.308 42.2267 120.71 42.5497 120.184C42.8727 119.658 43.3097 119.243 43.8607 118.939C44.4117 118.635 45.0355 118.484 45.7322 118.484C46.4605 118.484 47.0812 118.639 47.5942 118.949C48.1072 119.253 48.4967 119.68 48.7627 120.231C49.035 120.782 49.1712 121.422 49.1712 122.15L49.1617 129H47.1762ZM62.2052 129.285C61.1855 129.285 60.2894 129.063 59.5167 128.62C58.7504 128.17 58.1519 127.546 57.7212 126.748C57.2969 125.944 57.0847 125.013 57.0847 123.955C57.0847 122.834 57.2937 121.862 57.7117 121.039C58.136 120.216 58.725 119.579 59.4787 119.129C60.2324 118.68 61.1095 118.455 62.1102 118.455C63.1552 118.455 64.045 118.699 64.7797 119.187C65.5144 119.668 66.0622 120.355 66.4232 121.248C66.7905 122.141 66.9362 123.202 66.8602 124.43H64.8747V123.708C64.862 122.518 64.634 121.637 64.1907 121.067C63.7537 120.497 63.0855 120.212 62.1862 120.212C61.1919 120.212 60.4445 120.526 59.9442 121.153C59.4439 121.78 59.1937 122.686 59.1937 123.87C59.1937 124.997 59.4439 125.871 59.9442 126.492C60.4445 127.106 61.1665 127.413 62.1102 127.413C62.7309 127.413 63.266 127.274 63.7157 126.995C64.1717 126.71 64.5264 126.305 64.7797 125.779L66.7272 126.397C66.3282 127.315 65.7234 128.028 64.9127 128.534C64.102 129.035 63.1995 129.285 62.2052 129.285ZM58.5477 124.43V122.882H65.8722V124.43H58.5477ZM72.9151 129.276C71.6675 129.276 70.651 129 69.8656 128.449C69.0803 127.898 68.599 127.122 68.4216 126.121L70.4546 125.808C70.5813 126.34 70.8726 126.761 71.3286 127.071C71.791 127.375 72.3641 127.527 73.0481 127.527C73.6688 127.527 74.1533 127.401 74.5016 127.147C74.8563 126.894 75.0336 126.546 75.0336 126.102C75.0336 125.843 74.9703 125.634 74.8436 125.475C74.7233 125.311 74.4668 125.156 74.0741 125.01C73.6815 124.864 73.083 124.684 72.2786 124.468C71.3983 124.24 70.6985 123.997 70.1791 123.737C69.6661 123.471 69.2988 123.164 69.0771 122.815C68.8618 122.461 68.7541 122.033 68.7541 121.533C68.7541 120.912 68.9188 120.371 69.2481 119.908C69.5775 119.446 70.0398 119.088 70.6351 118.835C71.2368 118.582 71.9398 118.455 72.7441 118.455C73.5295 118.455 74.2293 118.578 74.8436 118.825C75.458 119.072 75.9551 119.424 76.3351 119.88C76.7151 120.33 76.9431 120.858 77.0191 121.466L74.9861 121.837C74.9165 121.343 74.6853 120.953 74.2926 120.668C73.9 120.383 73.3901 120.228 72.7631 120.203C72.1615 120.178 71.6738 120.279 71.3001 120.507C70.9265 120.729 70.7396 121.036 70.7396 121.428C70.7396 121.656 70.8093 121.85 70.9486 122.008C71.0943 122.166 71.373 122.318 71.7846 122.464C72.1963 122.61 72.8043 122.784 73.6086 122.986C74.47 123.208 75.154 123.455 75.6606 123.727C76.1673 123.993 76.5283 124.313 76.7436 124.687C76.9653 125.054 77.0761 125.501 77.0761 126.026C77.0761 127.04 76.7056 127.835 75.9646 128.411C75.23 128.987 74.2135 129.276 72.9151 129.276Z" fill="#176DC4"/>
</svg>
