<svg width="89" height="133" viewBox="0 0 89 133" fill="none" xmlns="http://www.w3.org/2000/svg">
<path d="M44.5 0C19.9212 0 0 19.9241 0 44.5015C0 69.0818 19.9212 89 44.5 89C69.0759 89 89 69.0818 89 44.5015C89 19.9241 69.0759 0 44.5 0ZM85.9696 42.226C79.2797 35.4294 64.841 24.8473 39.4641 24.4246C39.3128 20.0383 39.9017 15.9265 40.7664 12.3591C59.498 12.7759 73.8359 20.7459 82.0372 26.743C84.2889 31.4837 85.6699 36.7125 85.9696 42.226ZM44.0313 2.97853C44.187 2.97705 44.3442 2.96667 44.5 2.96667C58.9017 2.96667 71.6079 10.3359 79.0617 21.4979C70.3486 16.0007 57.4896 10.2024 41.4963 9.69358C42.3151 6.97018 43.2451 4.68585 44.0313 2.97853ZM25.5089 7.58132C30.2348 5.13975 35.4843 3.58225 41.0438 3.12093C37.558 11.306 32.6215 28.4607 43.0597 44.5638C40.1627 50.2435 36.2453 54.4205 32.0177 57.4866C18.8858 33.6554 22.9843 14.8615 25.5089 7.58132ZM10.545 20.6257C13.6215 16.2633 17.5152 12.5178 22.0052 9.61348C19.4391 18.7479 17.3802 36.6517 29.7913 58.9966C26.0681 61.318 22.2188 62.8681 18.6945 63.902C9.58827 47.2872 9.41472 30.6991 10.545 20.6257ZM2.96667 44.5015C2.96667 37.7434 4.59982 31.3651 7.47452 25.7195C7.0132 36.0554 8.35265 50.2939 16.0245 64.6066C13.2091 65.2696 10.7304 65.6064 8.84957 65.7784C5.1175 59.5499 2.96667 52.2727 2.96667 44.5015ZM10.4827 68.2867C19.2937 67.2247 36.6843 62.9482 45.4345 45.8083C51.8025 45.476 57.3768 46.7829 62.1413 48.9144C48.0719 72.2042 29.7379 78.0486 22.1773 79.4978C17.5849 76.5578 13.6081 72.7441 10.4827 68.2867ZM41.0765 85.8805C35.5792 85.4281 30.3846 83.9047 25.6988 81.5151C34.8925 79.17 51.4242 72.001 64.565 50.0862C68.4351 52.1495 71.7043 54.7098 74.361 57.2463C64.565 73.3716 50.3695 81.8058 41.0765 85.8805ZM47.1077 85.9428C56.2569 81.1576 67.8091 72.9058 76.3086 59.2102C78.2162 61.2409 79.7099 63.1544 80.7897 64.6704C74.0851 76.6854 61.5924 85.041 47.1077 85.9428ZM45.3247 43.1294C41.8537 37.7835 40.1983 32.3026 39.6599 27.1079C66.618 27.6434 80.8313 40.366 85.9903 46.2667C85.7545 51.8707 84.4017 57.1884 82.15 62.0093C76.7625 54.8819 64.396 42.1504 45.3247 43.1294Z" fill="#9155FA"/>
<path d="M26.6465 127L22.2005 113.32H24.262L28.0525 124.995L31.8905 113.32H33.952L29.506 127H26.6465ZM38.7084 127.285C37.6824 127.285 36.7925 127.054 36.0389 126.591C35.2852 126.129 34.7025 125.493 34.2909 124.682C33.8855 123.865 33.6829 122.924 33.6829 121.86C33.6829 120.79 33.8919 119.85 34.3099 119.039C34.7279 118.222 35.3137 117.589 36.0674 117.139C36.821 116.683 37.7014 116.455 38.7084 116.455C39.7344 116.455 40.6242 116.686 41.3779 117.148C42.1315 117.611 42.7142 118.247 43.1259 119.058C43.5375 119.869 43.7434 120.803 43.7434 121.86C43.7434 122.931 43.5344 123.874 43.1164 124.691C42.7047 125.502 42.122 126.139 41.3684 126.601C40.6147 127.057 39.728 127.285 38.7084 127.285ZM38.7084 125.413C39.69 125.413 40.4215 125.084 40.9029 124.425C41.3905 123.76 41.6344 122.905 41.6344 121.86C41.6344 120.79 41.3874 119.935 40.8934 119.295C40.4057 118.649 39.6774 118.326 38.7084 118.326C38.0434 118.326 37.4955 118.478 37.0649 118.782C36.6342 119.08 36.3144 119.495 36.1054 120.027C35.8964 120.553 35.7919 121.164 35.7919 121.86C35.7919 122.937 36.0389 123.798 36.5329 124.444C37.0269 125.09 37.752 125.413 38.7084 125.413ZM46.021 127V113.035H48.0065V127H46.021ZM55.4098 127.285C54.3901 127.285 53.494 127.063 52.7213 126.62C51.955 126.17 51.3565 125.546 50.9258 124.748C50.5015 123.944 50.2893 123.013 50.2893 121.955C50.2893 120.834 50.4983 119.862 50.9163 119.039C51.3406 118.216 51.9296 117.579 52.6833 117.129C53.437 116.68 54.3141 116.455 55.3148 116.455C56.3598 116.455 57.2496 116.699 57.9843 117.187C58.719 117.668 59.2668 118.355 59.6278 119.248C59.9951 120.141 60.1408 121.202 60.0648 122.43H58.0793V121.708C58.0666 120.518 57.8386 119.637 57.3953 119.067C56.9583 118.497 56.2901 118.212 55.3908 118.212C54.3965 118.212 53.6491 118.526 53.1488 119.153C52.6485 119.78 52.3983 120.686 52.3983 121.87C52.3983 122.997 52.6485 123.871 53.1488 124.492C53.6491 125.106 54.3711 125.413 55.3148 125.413C55.9355 125.413 56.4706 125.274 56.9203 124.995C57.3763 124.71 57.731 124.305 57.9843 123.779L59.9318 124.397C59.5328 125.315 58.928 126.028 58.1173 126.534C57.3066 127.035 56.4041 127.285 55.4098 127.285ZM51.7523 122.43V120.882H59.0768V122.43H51.7523ZM62.3862 115.058V113.13H64.3717V115.058H62.3862ZM62.3862 127V116.74H64.3717V127H62.3862Z" fill="#9155FA"/>
</svg>
