<svg width="1440" height="618" viewBox="0 0 1440 618" fill="none" xmlns="http://www.w3.org/2000/svg">
<mask id="mask0_246_34" style="mask-type:alpha" maskUnits="userSpaceOnUse" x="0" y="0" width="1440" height="618">
<rect width="1440" height="618" fill="white"/>
</mask>
<g mask="url(#mask0_246_34)">
<rect width="1440" height="661" fill="white"/>
<path d="M829.429 224.101C824.66 222.475 820.325 220.85 816.424 219.224C812.522 217.49 809.162 215.431 806.344 213.046C803.527 210.662 801.305 207.844 799.679 204.593C798.162 201.233 797.403 197.169 797.403 192.4C797.403 183.188 800.925 175.818 807.97 170.291C815.123 164.764 825.094 162 837.883 162C842.543 162 846.878 162.325 850.888 162.975C854.898 163.626 858.312 164.655 861.13 166.064C864.056 167.365 866.332 169.099 867.958 171.266C869.584 173.326 870.396 175.764 870.396 178.582C870.396 181.4 869.746 183.838 868.446 185.898C867.145 187.848 865.574 189.528 863.731 190.937C861.347 189.42 858.15 188.119 854.14 187.036C850.129 185.843 845.74 185.247 840.971 185.247C836.094 185.247 832.518 185.952 830.242 187.361C827.966 188.661 826.828 190.341 826.828 192.4C826.828 194.026 827.532 195.381 828.941 196.464C830.35 197.44 832.464 198.361 835.282 199.228L843.898 201.992C854.085 205.243 861.889 209.416 867.308 214.51C872.835 219.495 875.599 226.323 875.599 234.993C875.599 244.205 871.968 251.684 864.706 257.428C857.445 263.063 846.77 265.881 832.68 265.881C827.695 265.881 823.035 265.448 818.7 264.581C814.473 263.822 810.734 262.684 807.482 261.167C804.339 259.541 801.847 257.59 800.004 255.314C798.27 252.93 797.403 250.22 797.403 247.186C797.403 244.043 798.324 241.388 800.167 239.22C802.009 236.944 804.014 235.21 806.182 234.018C809.216 236.402 812.901 238.461 817.236 240.195C821.68 241.929 826.503 242.796 831.705 242.796C837.016 242.796 840.755 241.984 842.922 240.358C845.09 238.732 846.174 236.836 846.174 234.668C846.174 232.5 845.307 230.875 843.573 229.791C841.839 228.599 839.4 227.461 836.257 226.377L829.429 224.101Z" fill="url(#paint0_linear_246_34)"/>
<path d="M722.739 181.426C722.739 176.766 724.093 173.081 726.803 170.372C729.512 167.662 733.197 166.308 737.857 166.308H791.505C792.264 167.5 792.914 169.071 793.456 171.022C794.106 172.973 794.431 175.032 794.431 177.2C794.431 181.318 793.51 184.244 791.668 185.978C789.934 187.712 787.603 188.579 784.677 188.579H750.375V203.698H786.953C787.712 204.891 788.362 206.462 788.904 208.413C789.554 210.255 789.879 212.26 789.879 214.428C789.879 218.546 789.012 221.472 787.278 223.207C785.544 224.941 783.214 225.808 780.288 225.808H750.375V242.877H792.155C792.914 244.069 793.564 245.641 794.106 247.592C794.756 249.543 795.082 251.602 795.082 253.769C795.082 257.888 794.16 260.868 792.318 262.711C790.584 264.445 788.254 265.312 785.327 265.312H737.857C733.197 265.312 729.512 263.957 726.803 261.248C724.093 258.538 722.739 254.853 722.739 250.193V181.426Z" fill="url(#paint1_linear_246_34)"/>
<path d="M549 182.863C549 178.202 550.355 174.518 553.064 171.808C555.774 169.099 559.459 167.744 564.119 167.744H617.766C618.525 168.936 619.175 170.508 619.717 172.458C620.368 174.409 620.693 176.468 620.693 178.636C620.693 182.754 619.771 185.681 617.929 187.415C616.195 189.149 613.865 190.016 610.939 190.016H576.637V205.135H613.215C613.973 206.327 614.623 207.898 615.165 209.849C615.816 211.692 616.141 213.697 616.141 215.864C616.141 219.983 615.274 222.909 613.54 224.643C611.806 226.377 609.475 227.244 606.549 227.244H576.637V244.314H618.417C619.175 245.506 619.826 247.077 620.368 249.028C621.018 250.979 621.343 253.038 621.343 255.206C621.343 259.324 620.422 262.304 618.579 264.147C616.845 265.881 614.515 266.748 611.589 266.748H564.119C559.459 266.748 555.774 265.393 553.064 262.684C550.355 259.974 549 256.289 549 251.629V182.863Z" fill="url(#paint2_linear_246_34)"/>
<path d="M690.48 260.624C688.963 261.925 686.578 263.063 683.327 264.038C680.184 265.013 676.716 265.501 672.923 265.501C668.371 265.501 664.469 264.851 661.218 263.55C657.966 262.141 655.745 260.245 654.553 257.86C653.36 255.368 651.897 252.171 650.163 248.269C648.429 244.259 646.587 239.815 644.636 234.938C642.793 230.061 640.843 224.913 638.783 219.494C636.833 213.967 634.936 208.385 633.094 202.75C631.251 197.114 629.517 191.587 627.891 186.168C626.266 180.749 624.857 175.655 623.665 170.886C625.182 169.369 627.349 168.014 630.167 166.822C633.094 165.522 636.182 164.871 639.434 164.871C643.444 164.871 646.695 165.738 649.188 167.472C651.789 169.098 653.685 172.187 654.878 176.739C657.804 187.36 660.73 197.548 663.656 207.302C666.691 216.947 669.834 227.027 673.085 237.539H674.061C676.987 227.352 679.967 216.243 683.002 204.213C686.145 192.183 689.125 180.207 691.943 168.285C693.894 167.31 695.953 166.497 698.121 165.847C700.397 165.196 702.944 164.871 705.762 164.871C709.772 164.871 713.186 165.793 716.003 167.635C718.821 169.369 720.23 172.295 720.23 176.414C720.23 178.798 719.634 182.266 718.442 186.818C717.358 191.37 715.895 196.518 714.053 202.262C712.318 207.898 710.313 213.804 708.038 219.982C705.87 226.16 703.648 232.012 701.372 237.539C699.205 242.958 697.145 247.781 695.195 252.008C693.244 256.126 691.672 258.998 690.48 260.624Z" fill="url(#paint3_linear_246_34)"/>
<path d="M398.665 385V368.762H392.377V367H406.79V368.762H400.502V385H398.665ZM412.43 385.375C411.088 385.375 409.942 385.071 408.992 384.462C408.042 383.854 407.313 383.012 406.805 381.937C406.297 380.862 406.042 379.629 406.042 378.237C406.042 376.821 406.301 375.579 406.817 374.512C407.334 373.446 408.067 372.617 409.017 372.025C409.976 371.425 411.113 371.125 412.43 371.125C413.78 371.125 414.93 371.429 415.88 372.037C416.838 372.637 417.567 373.475 418.067 374.55C418.576 375.617 418.83 376.846 418.83 378.237C418.83 379.654 418.576 380.9 418.067 381.975C417.559 383.042 416.826 383.875 415.867 384.475C414.909 385.075 413.763 385.375 412.43 385.375ZM412.43 383.612C413.93 383.612 415.047 383.117 415.78 382.125C416.513 381.125 416.88 379.829 416.88 378.237C416.88 376.604 416.509 375.304 415.767 374.337C415.034 373.371 413.922 372.887 412.43 372.887C411.422 372.887 410.588 373.117 409.93 373.575C409.28 374.025 408.792 374.654 408.467 375.462C408.151 376.262 407.992 377.187 407.992 378.237C407.992 379.862 408.367 381.167 409.117 382.15C409.867 383.125 410.972 383.612 412.43 383.612ZM426.825 385.375C425.567 385.375 424.492 385.063 423.6 384.437C422.708 383.804 422.025 382.95 421.55 381.875C421.075 380.8 420.837 379.587 420.837 378.237C420.837 376.896 421.071 375.687 421.537 374.612C422.012 373.537 422.692 372.687 423.575 372.062C424.458 371.437 425.517 371.125 426.75 371.125C428.017 371.125 429.083 371.433 429.95 372.05C430.817 372.667 431.471 373.512 431.912 374.587C432.362 375.654 432.587 376.871 432.587 378.237C432.587 379.579 432.367 380.792 431.925 381.875C431.483 382.95 430.833 383.804 429.975 384.437C429.117 385.063 428.067 385.375 426.825 385.375ZM427.012 383.662C427.971 383.662 428.762 383.429 429.387 382.962C430.012 382.496 430.479 381.854 430.787 381.037C431.096 380.212 431.25 379.279 431.25 378.237C431.25 377.179 431.096 376.246 430.787 375.437C430.479 374.621 430.012 373.983 429.387 373.525C428.771 373.067 427.992 372.837 427.05 372.837C426.083 372.837 425.283 373.075 424.65 373.55C424.017 374.025 423.546 374.671 423.237 375.487C422.937 376.304 422.787 377.221 422.787 378.237C422.787 379.262 422.942 380.187 423.25 381.012C423.567 381.829 424.037 382.475 424.662 382.95C425.287 383.425 426.071 383.662 427.012 383.662ZM431.25 385V374.837H431.05V367H432.9V385H431.25ZM442.044 385.375C440.703 385.375 439.557 385.071 438.607 384.462C437.657 383.854 436.928 383.012 436.419 381.937C435.911 380.862 435.657 379.629 435.657 378.237C435.657 376.821 435.915 375.579 436.432 374.512C436.948 373.446 437.682 372.617 438.632 372.025C439.59 371.425 440.728 371.125 442.044 371.125C443.394 371.125 444.544 371.429 445.494 372.037C446.453 372.637 447.182 373.475 447.682 374.55C448.19 375.617 448.444 376.846 448.444 378.237C448.444 379.654 448.19 380.9 447.682 381.975C447.173 383.042 446.44 383.875 445.482 384.475C444.523 385.075 443.378 385.375 442.044 385.375ZM442.044 383.612C443.544 383.612 444.661 383.117 445.394 382.125C446.128 381.125 446.494 379.829 446.494 378.237C446.494 376.604 446.123 375.304 445.382 374.337C444.648 373.371 443.536 372.887 442.044 372.887C441.036 372.887 440.203 373.117 439.544 373.575C438.894 374.025 438.407 374.654 438.082 375.462C437.765 376.262 437.607 377.187 437.607 378.237C437.607 379.862 437.982 381.167 438.732 382.15C439.482 383.125 440.586 383.612 442.044 383.612ZM472.307 385L472.319 376.137C472.319 375.096 472.027 374.279 471.444 373.687C470.869 373.087 470.136 372.787 469.244 372.787C468.736 372.787 468.24 372.904 467.757 373.137C467.273 373.371 466.873 373.746 466.557 374.262C466.248 374.779 466.094 375.454 466.094 376.287L465.007 375.975C464.982 375.008 465.169 374.162 465.569 373.437C465.977 372.712 466.536 372.15 467.244 371.75C467.961 371.342 468.769 371.137 469.669 371.137C471.027 371.137 472.115 371.558 472.932 372.4C473.748 373.233 474.157 374.362 474.157 375.787L474.144 385H472.307ZM456.194 385V371.5H457.844V374.825H458.044V385H456.194ZM464.269 385L464.282 376.262C464.282 375.187 463.994 374.342 463.419 373.725C462.852 373.1 462.102 372.787 461.169 372.787C460.236 372.787 459.482 373.108 458.907 373.75C458.332 374.383 458.044 375.229 458.044 376.287L456.944 375.687C456.944 374.821 457.148 374.046 457.557 373.362C457.965 372.671 458.523 372.129 459.232 371.737C459.94 371.337 460.744 371.137 461.644 371.137C462.502 371.137 463.265 371.321 463.932 371.687C464.607 372.054 465.136 372.587 465.519 373.287C465.902 373.987 466.094 374.837 466.094 375.837L466.082 385H464.269ZM482.962 385.375C481.621 385.375 480.475 385.071 479.525 384.462C478.575 383.854 477.846 383.012 477.337 381.937C476.829 380.862 476.575 379.629 476.575 378.237C476.575 376.821 476.833 375.579 477.35 374.512C477.866 373.446 478.6 372.617 479.55 372.025C480.508 371.425 481.646 371.125 482.962 371.125C484.312 371.125 485.462 371.429 486.412 372.037C487.371 372.637 488.1 373.475 488.6 374.55C489.108 375.617 489.362 376.846 489.362 378.237C489.362 379.654 489.108 380.9 488.6 381.975C488.091 383.042 487.358 383.875 486.4 384.475C485.441 385.075 484.296 385.375 482.962 385.375ZM482.962 383.612C484.462 383.612 485.579 383.117 486.312 382.125C487.046 381.125 487.412 379.829 487.412 378.237C487.412 376.604 487.041 375.304 486.3 374.337C485.566 373.371 484.454 372.887 482.962 372.887C481.954 372.887 481.121 373.117 480.462 373.575C479.812 374.025 479.325 374.654 479 375.462C478.683 376.262 478.525 377.187 478.525 378.237C478.525 379.862 478.9 381.167 479.65 382.15C480.4 383.125 481.504 383.612 482.962 383.612ZM508.22 385L508.232 376.137C508.232 375.096 507.94 374.279 507.357 373.687C506.782 373.087 506.049 372.787 505.157 372.787C504.649 372.787 504.153 372.904 503.67 373.137C503.186 373.371 502.786 373.746 502.47 374.262C502.161 374.779 502.007 375.454 502.007 376.287L500.92 375.975C500.895 375.008 501.082 374.162 501.482 373.437C501.89 372.712 502.449 372.15 503.157 371.75C503.874 371.342 504.682 371.137 505.582 371.137C506.94 371.137 508.028 371.558 508.845 372.4C509.661 373.233 510.07 374.362 510.07 375.787L510.057 385H508.22ZM492.107 385V371.5H493.757V374.825H493.957V385H492.107ZM500.182 385L500.195 376.262C500.195 375.187 499.907 374.342 499.332 373.725C498.765 373.1 498.015 372.787 497.082 372.787C496.149 372.787 495.395 373.108 494.82 373.75C494.245 374.383 493.957 375.229 493.957 376.287L492.857 375.687C492.857 374.821 493.061 374.046 493.47 373.362C493.878 372.671 494.436 372.129 495.145 371.737C495.853 371.337 496.657 371.137 497.557 371.137C498.415 371.137 499.178 371.321 499.845 371.687C500.52 372.054 501.049 372.587 501.432 373.287C501.815 373.987 502.007 374.837 502.007 375.837L501.995 385H500.182ZM518.95 385.375C517.634 385.375 516.492 385.083 515.525 384.5C514.567 383.917 513.821 383.096 513.288 382.037C512.754 380.979 512.488 379.737 512.488 378.312C512.488 376.837 512.75 375.562 513.275 374.487C513.8 373.412 514.538 372.583 515.488 372C516.446 371.417 517.575 371.125 518.875 371.125C520.209 371.125 521.346 371.433 522.288 372.05C523.229 372.658 523.942 373.533 524.425 374.675C524.909 375.817 525.129 377.179 525.088 378.762H523.213V378.113C523.179 376.362 522.8 375.042 522.075 374.15C521.359 373.258 520.309 372.812 518.925 372.812C517.475 372.812 516.363 373.283 515.588 374.225C514.821 375.167 514.438 376.508 514.438 378.25C514.438 379.95 514.821 381.271 515.588 382.212C516.363 383.146 517.459 383.612 518.875 383.612C519.842 383.612 520.684 383.392 521.4 382.95C522.125 382.5 522.696 381.854 523.113 381.012L524.825 381.675C524.292 382.85 523.504 383.762 522.463 384.412C521.429 385.054 520.259 385.375 518.95 385.375ZM513.788 378.762V377.225H524.1V378.762H513.788ZM537.246 385V378.113C537.246 377.362 537.175 376.675 537.033 376.05C536.891 375.417 536.662 374.867 536.346 374.4C536.037 373.925 535.633 373.558 535.133 373.3C534.641 373.042 534.041 372.912 533.333 372.912C532.683 372.912 532.108 373.025 531.608 373.25C531.116 373.475 530.7 373.8 530.358 374.225C530.025 374.642 529.771 375.15 529.596 375.75C529.421 376.35 529.333 377.033 529.333 377.8L528.033 377.512C528.033 376.129 528.275 374.967 528.758 374.025C529.241 373.083 529.908 372.371 530.758 371.887C531.608 371.404 532.583 371.163 533.683 371.163C534.491 371.163 535.196 371.287 535.796 371.537C536.404 371.787 536.916 372.125 537.333 372.55C537.758 372.975 538.1 373.462 538.358 374.012C538.616 374.554 538.804 375.133 538.921 375.75C539.037 376.358 539.096 376.967 539.096 377.575V385H537.246ZM527.483 385V371.5H529.146V374.825H529.333V385H527.483ZM549.689 385C548.931 385.158 548.181 385.221 547.439 385.188C546.706 385.154 546.048 384.996 545.464 384.712C544.889 384.429 544.452 383.987 544.152 383.387C543.91 382.887 543.777 382.383 543.752 381.875C543.735 381.358 543.727 380.771 543.727 380.112V367.75H545.552V380.037C545.552 380.604 545.556 381.079 545.564 381.462C545.581 381.837 545.669 382.171 545.827 382.462C546.127 383.021 546.602 383.354 547.252 383.462C547.91 383.571 548.723 383.546 549.689 383.387V385ZM540.839 373.075V371.5H549.689V373.075H540.839ZM557.498 385.375C556.157 385.375 555.011 385.071 554.061 384.462C553.111 383.854 552.382 383.012 551.873 381.937C551.365 380.862 551.111 379.629 551.111 378.237C551.111 376.821 551.369 375.579 551.886 374.512C552.403 373.446 553.136 372.617 554.086 372.025C555.044 371.425 556.182 371.125 557.498 371.125C558.848 371.125 559.998 371.429 560.948 372.037C561.907 372.637 562.636 373.475 563.136 374.55C563.644 375.617 563.898 376.846 563.898 378.237C563.898 379.654 563.644 380.9 563.136 381.975C562.628 383.042 561.894 383.875 560.936 384.475C559.978 385.075 558.832 385.375 557.498 385.375ZM557.498 383.612C558.998 383.612 560.115 383.117 560.848 382.125C561.582 381.125 561.948 379.829 561.948 378.237C561.948 376.604 561.578 375.304 560.836 374.337C560.103 373.371 558.99 372.887 557.498 372.887C556.49 372.887 555.657 373.117 554.998 373.575C554.348 374.025 553.861 374.654 553.536 375.462C553.219 376.262 553.061 377.187 553.061 378.237C553.061 379.862 553.436 381.167 554.186 382.15C554.936 383.125 556.04 383.612 557.498 383.612ZM578.361 369.375H576.786L578.273 365.5H579.848L578.361 369.375ZM577.373 385.375C576.056 385.375 574.915 385.083 573.948 384.5C572.99 383.917 572.244 383.096 571.711 382.037C571.177 380.979 570.911 379.737 570.911 378.312C570.911 376.837 571.173 375.562 571.698 374.487C572.223 373.412 572.961 372.583 573.911 372C574.869 371.417 575.998 371.125 577.298 371.125C578.631 371.125 579.769 371.433 580.711 372.05C581.652 372.658 582.365 373.533 582.848 374.675C583.331 375.817 583.552 377.179 583.511 378.762H581.636V378.113C581.602 376.362 581.223 375.042 580.498 374.15C579.781 373.258 578.731 372.812 577.348 372.812C575.898 372.812 574.786 373.283 574.011 374.225C573.244 375.167 572.861 376.508 572.861 378.25C572.861 379.95 573.244 381.271 574.011 382.212C574.786 383.146 575.881 383.612 577.298 383.612C578.265 383.612 579.106 383.392 579.823 382.95C580.548 382.5 581.119 381.854 581.536 381.012L583.248 381.675C582.715 382.85 581.927 383.762 580.886 384.412C579.852 385.054 578.681 385.375 577.373 385.375ZM572.211 378.762V377.225H582.523V378.762H572.211ZM596.452 385.338C595.644 385.338 594.935 385.213 594.327 384.962C593.727 384.713 593.215 384.375 592.79 383.95C592.373 383.525 592.035 383.042 591.777 382.5C591.519 381.95 591.331 381.371 591.215 380.762C591.098 380.146 591.04 379.533 591.04 378.925V371.5H592.89V378.387C592.89 379.129 592.96 379.817 593.102 380.45C593.244 381.083 593.469 381.637 593.777 382.112C594.094 382.579 594.498 382.942 594.99 383.2C595.49 383.458 596.094 383.587 596.802 383.587C597.452 383.587 598.023 383.475 598.515 383.25C599.015 383.025 599.431 382.704 599.765 382.287C600.106 381.862 600.365 381.35 600.54 380.75C600.715 380.142 600.802 379.458 600.802 378.7L602.102 378.987C602.102 380.371 601.86 381.533 601.377 382.475C600.894 383.417 600.227 384.129 599.377 384.612C598.527 385.096 597.552 385.338 596.452 385.338ZM600.99 385V381.675H600.802V371.5H602.64V385H600.99ZM622.233 385L622.246 376.137C622.246 375.096 621.954 374.279 621.371 373.687C620.796 373.087 620.062 372.787 619.171 372.787C618.662 372.787 618.167 372.904 617.683 373.137C617.2 373.371 616.8 373.746 616.483 374.262C616.175 374.779 616.021 375.454 616.021 376.287L614.933 375.975C614.908 375.008 615.096 374.162 615.496 373.437C615.904 372.712 616.462 372.15 617.171 371.75C617.887 371.342 618.696 371.137 619.596 371.137C620.954 371.137 622.042 371.558 622.858 372.4C623.675 373.233 624.083 374.362 624.083 375.787L624.071 385H622.233ZM606.121 385V371.5H607.771V374.825H607.971V385H606.121ZM614.196 385L614.208 376.262C614.208 375.187 613.921 374.342 613.346 373.725C612.779 373.1 612.029 372.787 611.096 372.787C610.162 372.787 609.408 373.108 608.833 373.75C608.258 374.383 607.971 375.229 607.971 376.287L606.871 375.687C606.871 374.821 607.075 374.046 607.483 373.362C607.892 372.671 608.45 372.129 609.158 371.737C609.867 371.337 610.671 371.137 611.571 371.137C612.429 371.137 613.192 371.321 613.858 371.687C614.533 372.054 615.062 372.587 615.446 373.287C615.829 373.987 616.021 374.837 616.021 375.837L616.008 385H614.196ZM631.187 385.375C630.171 385.375 629.316 385.192 628.625 384.825C627.941 384.458 627.429 383.971 627.087 383.362C626.746 382.754 626.575 382.092 626.575 381.375C626.575 380.642 626.721 380.017 627.012 379.5C627.312 378.975 627.716 378.546 628.225 378.212C628.741 377.879 629.337 377.625 630.012 377.45C630.696 377.283 631.45 377.137 632.275 377.012C633.108 376.879 633.921 376.767 634.712 376.675C635.512 376.575 636.212 376.479 636.812 376.387L636.162 376.787C636.187 375.454 635.929 374.467 635.387 373.825C634.846 373.183 633.904 372.862 632.562 372.862C631.637 372.862 630.854 373.071 630.212 373.487C629.579 373.904 629.133 374.562 628.875 375.462L627.087 374.937C627.396 373.729 628.016 372.792 628.95 372.125C629.883 371.458 631.096 371.125 632.587 371.125C633.821 371.125 634.866 371.358 635.725 371.825C636.591 372.283 637.204 372.95 637.562 373.825C637.729 374.217 637.837 374.654 637.887 375.137C637.937 375.621 637.962 376.112 637.962 376.612V385H636.325V381.612L636.8 381.812C636.341 382.971 635.629 383.854 634.662 384.462C633.696 385.071 632.537 385.375 631.187 385.375ZM631.4 383.787C632.258 383.787 633.008 383.633 633.65 383.325C634.291 383.017 634.808 382.596 635.2 382.062C635.591 381.521 635.846 380.912 635.962 380.237C636.062 379.804 636.116 379.329 636.125 378.812C636.133 378.287 636.137 377.896 636.137 377.637L636.837 378C636.212 378.083 635.533 378.167 634.8 378.25C634.075 378.333 633.358 378.429 632.65 378.537C631.95 378.646 631.316 378.775 630.75 378.925C630.366 379.033 629.996 379.187 629.637 379.387C629.279 379.579 628.983 379.837 628.75 380.162C628.525 380.487 628.412 380.892 628.412 381.375C628.412 381.767 628.508 382.146 628.7 382.512C628.9 382.879 629.216 383.183 629.65 383.425C630.091 383.667 630.675 383.787 631.4 383.787ZM652.296 385.375C650.938 385.375 649.746 385.071 648.721 384.462C647.696 383.854 646.896 383.017 646.321 381.95C645.755 380.875 645.471 379.642 645.471 378.25C645.471 376.842 645.763 375.604 646.346 374.537C646.93 373.462 647.734 372.625 648.759 372.025C649.784 371.425 650.963 371.125 652.296 371.125C653.655 371.125 654.846 371.429 655.871 372.037C656.905 372.646 657.709 373.487 658.284 374.562C658.859 375.629 659.146 376.858 659.146 378.25C659.146 379.65 658.855 380.887 658.271 381.962C657.696 383.029 656.892 383.867 655.859 384.475C654.834 385.075 653.646 385.375 652.296 385.375ZM652.296 382.2C653.388 382.2 654.2 381.833 654.734 381.1C655.275 380.358 655.546 379.408 655.546 378.25C655.546 377.05 655.271 376.092 654.721 375.375C654.18 374.658 653.371 374.3 652.296 374.3C651.555 374.3 650.946 374.467 650.471 374.8C649.996 375.133 649.642 375.596 649.409 376.187C649.184 376.779 649.071 377.467 649.071 378.25C649.071 379.458 649.342 380.421 649.884 381.137C650.434 381.846 651.238 382.2 652.296 382.2ZM668.52 385.375C667.178 385.375 666.058 385.063 665.158 384.437C664.258 383.812 663.578 382.962 663.12 381.887C662.67 380.812 662.445 379.6 662.445 378.25C662.445 376.9 662.67 375.687 663.12 374.612C663.57 373.537 664.233 372.687 665.108 372.062C665.983 371.437 667.062 371.125 668.345 371.125C669.637 371.125 670.762 371.433 671.72 372.05C672.678 372.667 673.42 373.512 673.945 374.587C674.478 375.654 674.745 376.875 674.745 378.25C674.745 379.6 674.483 380.812 673.958 381.887C673.441 382.962 672.716 383.812 671.783 384.437C670.849 385.063 669.762 385.375 668.52 385.375ZM661.87 391V371.5H664.87V380.75H665.295V391H661.87ZM667.97 382.35C668.703 382.35 669.303 382.167 669.77 381.8C670.237 381.433 670.583 380.942 670.808 380.325C671.033 379.7 671.145 379.008 671.145 378.25C671.145 377.5 671.028 376.817 670.795 376.2C670.562 375.575 670.199 375.079 669.708 374.712C669.224 374.337 668.603 374.15 667.845 374.15C667.137 374.15 666.562 374.321 666.12 374.662C665.687 375.004 665.37 375.483 665.17 376.1C664.97 376.717 664.87 377.433 664.87 378.25C664.87 379.067 664.97 379.783 665.17 380.4C665.37 381.017 665.695 381.496 666.145 381.837C666.603 382.179 667.212 382.35 667.97 382.35ZM683.571 385.375C682.212 385.375 681.021 385.071 679.996 384.462C678.971 383.854 678.171 383.017 677.596 381.95C677.029 380.875 676.746 379.642 676.746 378.25C676.746 376.842 677.037 375.604 677.621 374.537C678.204 373.462 679.008 372.625 680.033 372.025C681.058 371.425 682.237 371.125 683.571 371.125C684.929 371.125 686.121 371.429 687.146 372.037C688.179 372.646 688.983 373.487 689.558 374.562C690.133 375.629 690.421 376.858 690.421 378.25C690.421 379.65 690.129 380.887 689.546 381.962C688.971 383.029 688.166 383.867 687.133 384.475C686.108 385.075 684.921 385.375 683.571 385.375ZM683.571 382.2C684.662 382.2 685.475 381.833 686.008 381.1C686.55 380.358 686.821 379.408 686.821 378.25C686.821 377.05 686.546 376.092 685.996 375.375C685.454 374.658 684.646 374.3 683.571 374.3C682.829 374.3 682.221 374.467 681.746 374.8C681.271 375.133 680.916 375.596 680.683 376.187C680.458 376.779 680.346 377.467 680.346 378.25C680.346 379.458 680.616 380.421 681.158 381.137C681.708 381.846 682.512 382.2 683.571 382.2ZM693.169 385V371.5H696.169V374.8L695.844 374.375C696.019 373.908 696.253 373.483 696.544 373.1C696.836 372.717 697.194 372.4 697.619 372.15C697.944 371.95 698.299 371.796 698.682 371.687C699.065 371.571 699.461 371.5 699.869 371.475C700.278 371.442 700.686 371.45 701.094 371.5V374.675C700.719 374.558 700.282 374.521 699.782 374.562C699.29 374.596 698.844 374.708 698.444 374.9C698.044 375.083 697.707 375.329 697.432 375.637C697.157 375.937 696.949 376.296 696.807 376.712C696.665 377.121 696.594 377.583 696.594 378.1V385H693.169ZM711.572 385C710.639 385.175 709.722 385.25 708.822 385.225C707.931 385.208 707.131 385.054 706.422 384.762C705.722 384.462 705.189 383.983 704.822 383.325C704.489 382.708 704.314 382.083 704.297 381.45C704.281 380.808 704.272 380.083 704.272 379.275V367.75H707.672V379.075C707.672 379.6 707.676 380.075 707.685 380.5C707.701 380.917 707.789 381.25 707.947 381.5C708.247 381.975 708.726 382.233 709.385 382.275C710.043 382.317 710.772 382.283 711.572 382.175V385ZM701.972 374.125V371.5H711.572V374.125H701.972ZM719.606 385.4C718.547 385.4 717.685 385.221 717.018 384.862C716.351 384.504 715.831 384.05 715.456 383.5C715.089 382.95 714.826 382.379 714.668 381.788C714.51 381.187 714.414 380.642 714.381 380.15C714.347 379.658 714.331 379.3 714.331 379.075V371.5H717.781V377.875C717.781 378.183 717.797 378.579 717.831 379.062C717.864 379.537 717.968 380.017 718.143 380.5C718.318 380.983 718.601 381.387 718.993 381.712C719.393 382.037 719.956 382.2 720.681 382.2C720.972 382.2 721.285 382.154 721.618 382.062C721.951 381.971 722.264 381.796 722.556 381.537C722.847 381.271 723.085 380.883 723.268 380.375C723.46 379.858 723.556 379.183 723.556 378.35L725.506 379.275C725.506 380.342 725.289 381.342 724.856 382.275C724.422 383.208 723.768 383.962 722.893 384.537C722.026 385.113 720.931 385.4 719.606 385.4ZM723.981 385V380.525H723.556V371.5H726.981V385H723.981ZM739.674 385V378.625C739.674 378.317 739.657 377.925 739.624 377.45C739.591 376.967 739.487 376.483 739.312 376C739.137 375.517 738.849 375.112 738.449 374.787C738.057 374.462 737.499 374.3 736.774 374.3C736.482 374.3 736.17 374.346 735.837 374.437C735.503 374.529 735.191 374.708 734.899 374.975C734.607 375.233 734.366 375.617 734.174 376.125C733.991 376.633 733.899 377.308 733.899 378.15L731.949 377.225C731.949 376.158 732.166 375.158 732.599 374.225C733.032 373.292 733.682 372.537 734.549 371.962C735.424 371.387 736.524 371.1 737.849 371.1C738.907 371.1 739.77 371.279 740.437 371.637C741.103 371.996 741.62 372.45 741.987 373C742.362 373.55 742.628 374.125 742.787 374.725C742.945 375.317 743.041 375.858 743.074 376.35C743.107 376.842 743.124 377.2 743.124 377.425V385H739.674ZM730.449 385V371.5H733.474V375.975H733.899V385H730.449ZM746.618 369.625V366.625H750.018V369.625H746.618ZM746.618 385V371.5H750.018V385H746.618ZM759.24 385.375C757.998 385.375 756.911 385.063 755.978 384.437C755.044 383.812 754.315 382.962 753.79 381.887C753.273 380.812 753.015 379.6 753.015 378.25C753.015 376.875 753.278 375.654 753.803 374.587C754.336 373.512 755.082 372.667 756.04 372.05C756.998 371.433 758.123 371.125 759.415 371.125C760.698 371.125 761.778 371.437 762.653 372.062C763.528 372.687 764.19 373.537 764.64 374.612C765.09 375.687 765.315 376.9 765.315 378.25C765.315 379.6 765.086 380.812 764.628 381.887C764.178 382.962 763.503 383.812 762.603 384.437C761.703 385.063 760.582 385.375 759.24 385.375ZM759.79 382.35C760.548 382.35 761.153 382.179 761.603 381.837C762.061 381.496 762.39 381.017 762.59 380.4C762.79 379.783 762.89 379.067 762.89 378.25C762.89 377.433 762.79 376.717 762.59 376.1C762.39 375.483 762.069 375.004 761.628 374.662C761.194 374.321 760.623 374.15 759.915 374.15C759.157 374.15 758.532 374.337 758.04 374.712C757.557 375.079 757.198 375.575 756.965 376.2C756.732 376.817 756.615 377.5 756.615 378.25C756.615 379.008 756.728 379.7 756.953 380.325C757.178 380.942 757.523 381.433 757.99 381.8C758.457 382.167 759.057 382.35 759.79 382.35ZM762.89 385V375.75H762.465V367H765.89V385H762.89ZM773.14 385.375C772.173 385.375 771.353 385.192 770.678 384.825C770.011 384.45 769.503 383.954 769.153 383.337C768.811 382.712 768.64 382.025 768.64 381.275C768.64 380.65 768.736 380.079 768.928 379.562C769.119 379.046 769.428 378.592 769.853 378.2C770.286 377.8 770.865 377.467 771.59 377.2C772.09 377.017 772.686 376.854 773.378 376.712C774.069 376.571 774.853 376.437 775.728 376.312C776.603 376.179 777.565 376.033 778.615 375.875L777.39 376.55C777.39 375.75 777.198 375.162 776.815 374.787C776.432 374.412 775.79 374.225 774.89 374.225C774.39 374.225 773.869 374.346 773.328 374.587C772.786 374.829 772.407 375.258 772.19 375.875L769.115 374.9C769.457 373.783 770.098 372.875 771.04 372.175C771.982 371.475 773.265 371.125 774.89 371.125C776.082 371.125 777.14 371.308 778.065 371.675C778.99 372.042 779.69 372.675 780.165 373.575C780.432 374.075 780.59 374.575 780.64 375.075C780.69 375.575 780.715 376.133 780.715 376.75V385H777.74V382.225L778.165 382.8C777.507 383.708 776.794 384.367 776.028 384.775C775.269 385.175 774.307 385.375 773.14 385.375ZM773.865 382.7C774.49 382.7 775.015 382.592 775.44 382.375C775.873 382.15 776.215 381.896 776.465 381.612C776.723 381.329 776.898 381.092 776.99 380.9C777.165 380.533 777.265 380.108 777.29 379.625C777.323 379.133 777.34 378.725 777.34 378.4L778.34 378.65C777.332 378.817 776.515 378.958 775.89 379.075C775.265 379.183 774.761 379.283 774.378 379.375C773.994 379.467 773.657 379.567 773.365 379.675C773.032 379.808 772.761 379.954 772.553 380.112C772.353 380.262 772.203 380.429 772.103 380.612C772.011 380.796 771.965 381 771.965 381.225C771.965 381.533 772.04 381.8 772.19 382.025C772.348 382.242 772.569 382.408 772.853 382.525C773.136 382.642 773.473 382.7 773.865 382.7ZM789.44 385.375C788.199 385.375 787.111 385.063 786.178 384.437C785.244 383.812 784.515 382.962 783.99 381.887C783.474 380.812 783.215 379.6 783.215 378.25C783.215 376.875 783.478 375.654 784.003 374.587C784.536 373.512 785.282 372.667 786.24 372.05C787.199 371.433 788.324 371.125 789.615 371.125C790.899 371.125 791.978 371.437 792.853 372.062C793.728 372.687 794.39 373.537 794.84 374.612C795.29 375.687 795.515 376.9 795.515 378.25C795.515 379.6 795.286 380.812 794.828 381.887C794.378 382.962 793.703 383.812 792.803 384.437C791.903 385.063 790.782 385.375 789.44 385.375ZM789.99 382.35C790.749 382.35 791.353 382.179 791.803 381.837C792.261 381.496 792.59 381.017 792.79 380.4C792.99 379.783 793.09 379.067 793.09 378.25C793.09 377.433 792.99 376.717 792.79 376.1C792.59 375.483 792.269 375.004 791.828 374.662C791.394 374.321 790.824 374.15 790.115 374.15C789.357 374.15 788.732 374.337 788.24 374.712C787.757 375.079 787.399 375.575 787.165 376.2C786.932 376.817 786.815 377.5 786.815 378.25C786.815 379.008 786.928 379.7 787.153 380.325C787.378 380.942 787.724 381.433 788.19 381.8C788.657 382.167 789.257 382.35 789.99 382.35ZM793.09 385V375.75H792.665V367H796.09V385H793.09ZM805.865 385.375C804.482 385.375 803.261 385.079 802.203 384.487C801.153 383.887 800.328 383.067 799.728 382.025C799.136 380.975 798.84 379.775 798.84 378.425C798.84 376.95 799.132 375.667 799.715 374.575C800.299 373.483 801.103 372.637 802.128 372.037C803.153 371.429 804.332 371.125 805.665 371.125C807.082 371.125 808.286 371.458 809.278 372.125C810.269 372.792 811.003 373.729 811.478 374.937C811.953 376.146 812.119 377.567 811.978 379.2H808.615V377.95C808.615 376.575 808.394 375.587 807.953 374.987C807.519 374.379 806.807 374.075 805.815 374.075C804.657 374.075 803.803 374.429 803.253 375.137C802.711 375.837 802.44 376.875 802.44 378.25C802.44 379.508 802.711 380.483 803.253 381.175C803.803 381.858 804.607 382.2 805.665 382.2C806.332 382.2 806.903 382.054 807.378 381.762C807.853 381.471 808.215 381.05 808.465 380.5L811.865 381.475C811.357 382.708 810.553 383.667 809.453 384.35C808.361 385.033 807.165 385.375 805.865 385.375ZM801.39 379.2V376.675H810.34V379.2H801.39ZM825.043 385.375C823.784 385.375 822.709 385.063 821.818 384.437C820.926 383.804 820.243 382.95 819.768 381.875C819.293 380.8 819.055 379.587 819.055 378.237C819.055 376.896 819.289 375.687 819.755 374.612C820.23 373.537 820.909 372.687 821.793 372.062C822.676 371.437 823.734 371.125 824.968 371.125C826.234 371.125 827.301 371.433 828.168 372.05C829.034 372.667 829.689 373.512 830.13 374.587C830.58 375.654 830.805 376.871 830.805 378.237C830.805 379.579 830.584 380.792 830.143 381.875C829.701 382.95 829.051 383.804 828.193 384.437C827.334 385.063 826.284 385.375 825.043 385.375ZM825.23 383.662C826.189 383.662 826.98 383.429 827.605 382.962C828.23 382.496 828.697 381.854 829.005 381.037C829.314 380.212 829.468 379.279 829.468 378.237C829.468 377.179 829.314 376.246 829.005 375.437C828.697 374.621 828.23 373.983 827.605 373.525C826.989 373.067 826.209 372.837 825.268 372.837C824.301 372.837 823.501 373.075 822.868 373.55C822.234 374.025 821.764 374.671 821.455 375.487C821.155 376.304 821.005 377.221 821.005 378.237C821.005 379.262 821.159 380.187 821.468 381.012C821.784 381.829 822.255 382.475 822.88 382.95C823.505 383.425 824.289 383.662 825.23 383.662ZM829.468 385V374.837H829.268V367H831.118V385H829.468ZM840.337 385.375C839.02 385.375 837.879 385.083 836.912 384.5C835.954 383.917 835.208 383.096 834.675 382.037C834.141 380.979 833.875 379.737 833.875 378.312C833.875 376.837 834.137 375.562 834.662 374.487C835.187 373.412 835.925 372.583 836.875 372C837.833 371.417 838.962 371.125 840.262 371.125C841.595 371.125 842.733 371.433 843.675 372.05C844.616 372.658 845.329 373.533 845.812 374.675C846.295 375.817 846.516 377.179 846.475 378.762H844.6V378.113C844.566 376.362 844.187 375.042 843.462 374.15C842.745 373.258 841.695 372.812 840.312 372.812C838.862 372.812 837.75 373.283 836.975 374.225C836.208 375.167 835.825 376.508 835.825 378.25C835.825 379.95 836.208 381.271 836.975 382.212C837.75 383.146 838.845 383.612 840.262 383.612C841.229 383.612 842.07 383.392 842.787 382.95C843.512 382.5 844.083 381.854 844.5 381.012L846.212 381.675C845.679 382.85 844.891 383.762 843.85 384.412C842.816 385.054 841.645 385.375 840.337 385.375ZM835.175 378.762V377.225H845.487V378.762H835.175ZM859.853 385.375C858.495 385.375 857.345 385.071 856.403 384.462C855.462 383.854 854.745 383.017 854.253 381.95C853.77 380.875 853.52 379.642 853.503 378.25C853.52 376.833 853.778 375.592 854.278 374.525C854.778 373.45 855.499 372.617 856.441 372.025C857.383 371.425 858.524 371.125 859.866 371.125C861.233 371.125 862.42 371.458 863.428 372.125C864.445 372.792 865.141 373.704 865.516 374.862L863.716 375.437C863.399 374.629 862.895 374.004 862.203 373.562C861.52 373.112 860.737 372.887 859.853 372.887C858.862 372.887 858.041 373.117 857.391 373.575C856.741 374.025 856.258 374.654 855.941 375.462C855.624 376.271 855.462 377.2 855.453 378.25C855.47 379.867 855.845 381.167 856.578 382.15C857.312 383.125 858.403 383.612 859.853 383.612C860.77 383.612 861.549 383.404 862.191 382.987C862.841 382.562 863.333 381.946 863.666 381.137L865.516 381.687C865.016 382.887 864.283 383.804 863.316 384.437C862.349 385.063 861.195 385.375 859.853 385.375ZM868.096 385V371.5H869.746V374.75L869.421 374.325C869.571 373.925 869.767 373.558 870.009 373.225C870.25 372.883 870.513 372.604 870.796 372.387C871.146 372.079 871.555 371.846 872.021 371.687C872.488 371.521 872.959 371.425 873.434 371.4C873.909 371.367 874.342 371.4 874.734 371.5V373.225C874.242 373.1 873.705 373.071 873.121 373.137C872.538 373.204 872 373.437 871.509 373.837C871.059 374.187 870.721 374.608 870.496 375.1C870.271 375.583 870.121 376.1 870.046 376.65C869.971 377.192 869.934 377.729 869.934 378.262V385H868.096ZM877.355 368.937V366.875H879.192V368.937H877.355ZM877.355 385V371.5H879.192V385H877.355ZM886.802 385.375C885.786 385.375 884.932 385.192 884.24 384.825C883.557 384.458 883.044 383.971 882.702 383.362C882.361 382.754 882.19 382.092 882.19 381.375C882.19 380.642 882.336 380.017 882.627 379.5C882.927 378.975 883.332 378.546 883.84 378.212C884.357 377.879 884.952 377.625 885.627 377.45C886.311 377.283 887.065 377.137 887.89 377.012C888.723 376.879 889.536 376.767 890.327 376.675C891.127 376.575 891.827 376.479 892.427 376.387L891.777 376.787C891.802 375.454 891.544 374.467 891.002 373.825C890.461 373.183 889.519 372.862 888.177 372.862C887.252 372.862 886.469 373.071 885.827 373.487C885.194 373.904 884.748 374.562 884.49 375.462L882.702 374.937C883.011 373.729 883.632 372.792 884.565 372.125C885.498 371.458 886.711 371.125 888.202 371.125C889.436 371.125 890.482 371.358 891.34 371.825C892.207 372.283 892.819 372.95 893.177 373.825C893.344 374.217 893.452 374.654 893.502 375.137C893.552 375.621 893.577 376.112 893.577 376.612V385H891.94V381.612L892.415 381.812C891.957 382.971 891.244 383.854 890.277 384.462C889.311 385.071 888.152 385.375 886.802 385.375ZM887.015 383.787C887.873 383.787 888.623 383.633 889.265 383.325C889.907 383.017 890.423 382.596 890.815 382.062C891.207 381.521 891.461 380.912 891.577 380.237C891.677 379.804 891.732 379.329 891.74 378.812C891.748 378.287 891.752 377.896 891.752 377.637L892.452 378C891.827 378.083 891.148 378.167 890.415 378.25C889.69 378.333 888.973 378.429 888.265 378.537C887.565 378.646 886.932 378.775 886.365 378.925C885.982 379.033 885.611 379.187 885.252 379.387C884.894 379.579 884.598 379.837 884.365 380.162C884.14 380.487 884.027 380.892 884.027 381.375C884.027 381.767 884.123 382.146 884.315 382.512C884.515 382.879 884.832 383.183 885.265 383.425C885.707 383.667 886.29 383.787 887.015 383.787ZM896.832 385V371.5H898.482V374.75L898.157 374.325C898.307 373.925 898.502 373.558 898.744 373.225C898.986 372.883 899.248 372.604 899.532 372.387C899.882 372.079 900.29 371.846 900.757 371.687C901.223 371.521 901.694 371.425 902.169 371.4C902.644 371.367 903.077 371.4 903.469 371.5V373.225C902.977 373.1 902.44 373.071 901.857 373.137C901.273 373.204 900.736 373.437 900.244 373.837C899.794 374.187 899.457 374.608 899.232 375.1C899.007 375.583 898.857 376.1 898.782 376.65C898.707 377.192 898.669 377.729 898.669 378.262V385H896.832ZM927.095 385V377.025C927.095 376.133 926.883 375.442 926.458 374.95C926.041 374.45 925.462 374.2 924.72 374.2C924.245 374.2 923.833 374.312 923.483 374.537C923.133 374.754 922.858 375.062 922.658 375.462C922.466 375.854 922.37 376.308 922.37 376.825L920.945 375.875C920.945 374.95 921.162 374.133 921.595 373.425C922.037 372.717 922.624 372.167 923.358 371.775C924.099 371.375 924.92 371.175 925.82 371.175C927.362 371.175 928.524 371.633 929.308 372.55C930.099 373.458 930.495 374.65 930.495 376.125V385H927.095ZM910.82 385V371.5H913.82V375.975H914.245V385H910.82ZM918.97 385V377.025C918.97 376.133 918.758 375.442 918.333 374.95C917.916 374.45 917.337 374.2 916.595 374.2C915.887 374.2 915.316 374.446 914.883 374.937C914.458 375.421 914.245 376.05 914.245 376.825L912.82 375.825C912.82 374.942 913.041 374.15 913.483 373.45C913.924 372.75 914.516 372.196 915.258 371.787C916.008 371.379 916.845 371.175 917.77 371.175C918.829 371.175 919.695 371.4 920.37 371.85C921.054 372.3 921.558 372.9 921.883 373.65C922.208 374.4 922.37 375.225 922.37 376.125V385H918.97ZM939.776 385.375C938.393 385.375 937.172 385.079 936.114 384.487C935.064 383.887 934.239 383.067 933.639 382.025C933.047 380.975 932.751 379.775 932.751 378.425C932.751 376.95 933.043 375.667 933.626 374.575C934.21 373.483 935.014 372.637 936.039 372.037C937.064 371.429 938.243 371.125 939.576 371.125C940.993 371.125 942.197 371.458 943.189 372.125C944.181 372.792 944.914 373.729 945.389 374.937C945.864 376.146 946.031 377.567 945.889 379.2H942.526V377.95C942.526 376.575 942.306 375.587 941.864 374.987C941.431 374.379 940.718 374.075 939.726 374.075C938.568 374.075 937.714 374.429 937.164 375.137C936.622 375.837 936.351 376.875 936.351 378.25C936.351 379.508 936.622 380.483 937.164 381.175C937.714 381.858 938.518 382.2 939.576 382.2C940.243 382.2 940.814 382.054 941.289 381.762C941.764 381.471 942.126 381.05 942.376 380.5L945.776 381.475C945.268 382.708 944.464 383.667 943.364 384.35C942.272 385.033 941.076 385.375 939.776 385.375ZM935.301 379.2V376.675H944.251V379.2H935.301ZM964.595 385V377.025C964.595 376.133 964.383 375.442 963.958 374.95C963.541 374.45 962.962 374.2 962.22 374.2C961.745 374.2 961.333 374.312 960.983 374.537C960.633 374.754 960.358 375.062 960.158 375.462C959.966 375.854 959.87 376.308 959.87 376.825L958.445 375.875C958.445 374.95 958.662 374.133 959.095 373.425C959.537 372.717 960.124 372.167 960.858 371.775C961.599 371.375 962.42 371.175 963.32 371.175C964.862 371.175 966.024 371.633 966.808 372.55C967.599 373.458 967.995 374.65 967.995 376.125V385H964.595ZM948.32 385V371.5H951.32V375.975H951.745V385H948.32ZM956.47 385V377.025C956.47 376.133 956.258 375.442 955.833 374.95C955.416 374.45 954.837 374.2 954.095 374.2C953.387 374.2 952.816 374.446 952.383 374.937C951.958 375.421 951.745 376.05 951.745 376.825L950.32 375.825C950.32 374.942 950.541 374.15 950.983 373.45C951.424 372.75 952.016 372.196 952.758 371.787C953.508 371.379 954.345 371.175 955.27 371.175C956.329 371.175 957.195 371.4 957.87 371.85C958.554 372.3 959.058 372.9 959.383 373.65C959.708 374.4 959.87 375.225 959.87 376.125V385H956.47ZM978.389 369.625H975.864L977.939 364.75H980.464L978.389 369.625ZM977.076 385.375C975.718 385.375 974.526 385.071 973.501 384.462C972.476 383.854 971.676 383.017 971.101 381.95C970.535 380.875 970.251 379.642 970.251 378.25C970.251 376.842 970.543 375.604 971.126 374.537C971.71 373.462 972.514 372.625 973.539 372.025C974.564 371.425 975.743 371.125 977.076 371.125C978.435 371.125 979.626 371.429 980.651 372.037C981.685 372.646 982.489 373.487 983.064 374.562C983.639 375.629 983.926 376.858 983.926 378.25C983.926 379.65 983.635 380.887 983.051 381.962C982.476 383.029 981.672 383.867 980.639 384.475C979.614 385.075 978.426 385.375 977.076 385.375ZM977.076 382.2C978.168 382.2 978.981 381.833 979.514 381.1C980.056 380.358 980.326 379.408 980.326 378.25C980.326 377.05 980.051 376.092 979.501 375.375C978.96 374.658 978.151 374.3 977.076 374.3C976.335 374.3 975.726 374.467 975.251 374.8C974.776 375.133 974.422 375.596 974.189 376.187C973.964 376.779 973.851 377.467 973.851 378.25C973.851 379.458 974.122 380.421 974.664 381.137C975.214 381.846 976.018 382.2 977.076 382.2ZM986.675 385V371.5H989.675V374.8L989.35 374.375C989.525 373.908 989.759 373.483 990.05 373.1C990.342 372.717 990.7 372.4 991.125 372.15C991.45 371.95 991.804 371.796 992.188 371.687C992.571 371.571 992.967 371.5 993.375 371.475C993.784 371.442 994.192 371.45 994.6 371.5V374.675C994.225 374.558 993.788 374.521 993.288 374.562C992.796 374.596 992.35 374.708 991.95 374.9C991.55 375.083 991.213 375.329 990.938 375.637C990.663 375.937 990.454 376.296 990.313 376.712C990.171 377.121 990.1 377.583 990.1 378.1V385H986.675ZM997.228 369.625V366.625H1000.63V369.625H997.228ZM997.228 385V371.5H1000.63V385H997.228ZM1008.13 385.375C1007.16 385.375 1006.34 385.192 1005.66 384.825C1005 384.45 1004.49 383.954 1004.14 383.337C1003.8 382.712 1003.63 382.025 1003.63 381.275C1003.63 380.65 1003.72 380.079 1003.91 379.562C1004.1 379.046 1004.41 378.592 1004.84 378.2C1005.27 377.8 1005.85 377.467 1006.58 377.2C1007.08 377.017 1007.67 376.854 1008.36 376.712C1009.05 376.571 1009.84 376.437 1010.71 376.312C1011.59 376.179 1012.55 376.033 1013.6 375.875L1012.38 376.55C1012.38 375.75 1012.18 375.162 1011.8 374.787C1011.42 374.412 1010.78 374.225 1009.88 374.225C1009.38 374.225 1008.85 374.346 1008.31 374.587C1007.77 374.829 1007.39 375.258 1007.18 375.875L1004.1 374.9C1004.44 373.783 1005.08 372.875 1006.03 372.175C1006.97 371.475 1008.25 371.125 1009.88 371.125C1011.07 371.125 1012.13 371.308 1013.05 371.675C1013.98 372.042 1014.68 372.675 1015.15 373.575C1015.42 374.075 1015.58 374.575 1015.63 375.075C1015.68 375.575 1015.7 376.133 1015.7 376.75V385H1012.73V382.225L1013.15 382.8C1012.49 383.708 1011.78 384.367 1011.01 384.775C1010.25 385.175 1009.29 385.375 1008.13 385.375ZM1008.85 382.7C1009.48 382.7 1010 382.592 1010.43 382.375C1010.86 382.15 1011.2 381.896 1011.45 381.612C1011.71 381.329 1011.88 381.092 1011.98 380.9C1012.15 380.533 1012.25 380.108 1012.28 379.625C1012.31 379.133 1012.33 378.725 1012.33 378.4L1013.33 378.65C1012.32 378.817 1011.5 378.958 1010.88 379.075C1010.25 379.183 1009.75 379.283 1009.36 379.375C1008.98 379.467 1008.64 379.567 1008.35 379.675C1008.02 379.808 1007.75 379.954 1007.54 380.112C1007.34 380.262 1007.19 380.429 1007.09 380.612C1007 380.796 1006.95 381 1006.95 381.225C1006.95 381.533 1007.03 381.8 1007.18 382.025C1007.33 382.242 1007.55 382.408 1007.84 382.525C1008.12 382.642 1008.46 382.7 1008.85 382.7ZM1024.23 385.375C1022.53 385.375 1021.15 384.992 1020.1 384.225C1019.06 383.45 1018.43 382.358 1018.2 380.95L1021.68 380.425C1021.82 381.058 1022.13 381.554 1022.61 381.912C1023.1 382.271 1023.73 382.45 1024.48 382.45C1025.09 382.45 1025.57 382.333 1025.9 382.1C1026.23 381.858 1026.4 381.525 1026.4 381.1C1026.4 380.833 1026.33 380.621 1026.2 380.462C1026.07 380.296 1025.77 380.133 1025.3 379.975C1024.84 379.817 1024.13 379.608 1023.15 379.35C1022.05 379.067 1021.17 378.75 1020.51 378.4C1019.85 378.05 1019.38 377.633 1019.09 377.15C1018.8 376.658 1018.65 376.067 1018.65 375.375C1018.65 374.508 1018.87 373.758 1019.31 373.125C1019.75 372.483 1020.38 371.992 1021.18 371.65C1021.98 371.3 1022.93 371.125 1024.03 371.125C1025.08 371.125 1026.02 371.287 1026.84 371.612C1027.65 371.937 1028.31 372.4 1028.81 373C1029.32 373.6 1029.63 374.308 1029.75 375.125L1026.28 375.75C1026.22 375.25 1026 374.854 1025.63 374.562C1025.25 374.271 1024.74 374.1 1024.1 374.05C1023.48 374.008 1022.97 374.092 1022.59 374.3C1022.21 374.508 1022.03 374.808 1022.03 375.2C1022.03 375.433 1022.1 375.629 1022.26 375.787C1022.43 375.946 1022.77 376.108 1023.28 376.275C1023.79 376.442 1024.58 376.658 1025.63 376.925C1026.65 377.192 1027.47 377.504 1028.09 377.862C1028.71 378.212 1029.17 378.637 1029.45 379.137C1029.73 379.629 1029.88 380.225 1029.88 380.925C1029.88 382.308 1029.38 383.396 1028.38 384.187C1027.38 384.979 1025.99 385.375 1024.23 385.375ZM630.7 402.937V400.875H632.537V402.937H630.7ZM630.7 419V405.5H632.537V419H630.7ZM646.035 419V412.113C646.035 411.362 645.964 410.675 645.822 410.05C645.681 409.417 645.451 408.867 645.135 408.4C644.826 407.925 644.422 407.558 643.922 407.3C643.431 407.042 642.831 406.912 642.122 406.912C641.472 406.912 640.897 407.025 640.397 407.25C639.906 407.475 639.489 407.8 639.147 408.225C638.814 408.642 638.56 409.15 638.385 409.75C638.21 410.35 638.122 411.033 638.122 411.8L636.822 411.512C636.822 410.129 637.064 408.967 637.547 408.025C638.031 407.083 638.697 406.371 639.547 405.887C640.397 405.404 641.372 405.163 642.472 405.163C643.281 405.163 643.985 405.287 644.585 405.537C645.193 405.787 645.706 406.125 646.122 406.55C646.547 406.975 646.889 407.462 647.147 408.012C647.406 408.554 647.593 409.133 647.71 409.75C647.826 410.358 647.885 410.967 647.885 411.575V419H646.035ZM636.272 419V405.5H637.935V408.825H638.122V419H636.272ZM656.768 419.375C655.451 419.375 654.309 419.083 653.343 418.5C652.384 417.917 651.639 417.096 651.105 416.037C650.572 414.979 650.305 413.737 650.305 412.312C650.305 410.837 650.568 409.562 651.093 408.487C651.618 407.412 652.355 406.583 653.305 406C654.264 405.417 655.393 405.125 656.693 405.125C658.026 405.125 659.164 405.433 660.105 406.05C661.047 406.658 661.759 407.533 662.243 408.675C662.726 409.817 662.947 411.179 662.905 412.762H661.03V412.113C660.997 410.362 660.618 409.042 659.893 408.15C659.176 407.258 658.126 406.812 656.743 406.812C655.293 406.812 654.18 407.283 653.405 408.225C652.639 409.167 652.255 410.508 652.255 412.25C652.255 413.95 652.639 415.271 653.405 416.212C654.18 417.146 655.276 417.612 656.693 417.612C657.659 417.612 658.501 417.392 659.218 416.95C659.943 416.5 660.514 415.854 660.93 415.012L662.643 415.675C662.109 416.85 661.322 417.762 660.28 418.412C659.247 419.054 658.076 419.375 656.768 419.375ZM651.605 412.762V411.225H661.918V412.762H651.605ZM670.717 419.363C669.133 419.363 667.829 419.021 666.804 418.337C665.788 417.654 665.163 416.704 664.929 415.487L666.804 415.175C667.004 415.942 667.458 416.554 668.167 417.012C668.883 417.462 669.767 417.687 670.817 417.687C671.842 417.687 672.65 417.475 673.242 417.05C673.833 416.617 674.129 416.029 674.129 415.287C674.129 414.871 674.033 414.533 673.842 414.275C673.658 414.008 673.279 413.762 672.704 413.537C672.129 413.312 671.271 413.046 670.129 412.737C668.904 412.404 667.946 412.071 667.254 411.737C666.563 411.404 666.071 411.021 665.779 410.587C665.488 410.146 665.342 409.608 665.342 408.975C665.342 408.208 665.558 407.537 665.992 406.962C666.425 406.379 667.025 405.929 667.792 405.612C668.558 405.287 669.45 405.125 670.467 405.125C671.483 405.125 672.392 405.292 673.192 405.625C674 405.95 674.65 406.408 675.142 407C675.633 407.592 675.925 408.279 676.017 409.062L674.142 409.4C674.017 408.608 673.621 407.983 672.954 407.525C672.296 407.058 671.458 406.817 670.442 406.8C669.483 406.775 668.704 406.958 668.104 407.35C667.504 407.733 667.204 408.246 667.204 408.887C667.204 409.246 667.313 409.554 667.529 409.812C667.746 410.062 668.138 410.3 668.704 410.525C669.279 410.75 670.096 410.996 671.154 411.262C672.396 411.579 673.371 411.912 674.079 412.262C674.788 412.612 675.292 413.025 675.592 413.5C675.892 413.975 676.042 414.562 676.042 415.262C676.042 416.537 675.567 417.542 674.617 418.275C673.675 419 672.375 419.363 670.717 419.363ZM684.051 419.375C682.793 419.375 681.718 419.063 680.826 418.437C679.935 417.804 679.251 416.95 678.776 415.875C678.301 414.8 678.064 413.587 678.064 412.237C678.064 410.896 678.297 409.687 678.764 408.612C679.239 407.537 679.918 406.687 680.801 406.062C681.685 405.437 682.743 405.125 683.976 405.125C685.243 405.125 686.31 405.433 687.176 406.05C688.043 406.667 688.697 407.512 689.139 408.587C689.589 409.654 689.814 410.871 689.814 412.237C689.814 413.579 689.593 414.792 689.151 415.875C688.71 416.95 688.06 417.804 687.201 418.437C686.343 419.063 685.293 419.375 684.051 419.375ZM684.239 417.662C685.197 417.662 685.989 417.429 686.614 416.962C687.239 416.496 687.706 415.854 688.014 415.037C688.322 414.212 688.476 413.279 688.476 412.237C688.476 411.179 688.322 410.246 688.014 409.437C687.706 408.621 687.239 407.983 686.614 407.525C685.997 407.067 685.218 406.837 684.276 406.837C683.31 406.837 682.51 407.075 681.876 407.55C681.243 408.025 680.772 408.671 680.464 409.487C680.164 410.304 680.014 411.221 680.014 412.237C680.014 413.262 680.168 414.187 680.476 415.012C680.793 415.829 681.264 416.475 681.889 416.95C682.514 417.425 683.297 417.662 684.239 417.662ZM688.276 425V415.662H688.476V405.5H690.126V425H688.276ZM698.796 419.338C697.987 419.338 697.279 419.213 696.671 418.962C696.071 418.713 695.558 418.375 695.133 417.95C694.717 417.525 694.379 417.042 694.121 416.5C693.862 415.95 693.675 415.371 693.558 414.762C693.442 414.146 693.383 413.533 693.383 412.925V405.5H695.233V412.387C695.233 413.129 695.304 413.817 695.446 414.45C695.587 415.083 695.812 415.637 696.121 416.112C696.437 416.579 696.842 416.942 697.333 417.2C697.833 417.458 698.437 417.587 699.146 417.587C699.796 417.587 700.367 417.475 700.858 417.25C701.358 417.025 701.775 416.704 702.108 416.287C702.45 415.862 702.708 415.35 702.883 414.75C703.058 414.142 703.146 413.458 703.146 412.7L704.446 412.987C704.446 414.371 704.204 415.533 703.721 416.475C703.237 417.417 702.571 418.129 701.721 418.612C700.871 419.096 699.896 419.338 698.796 419.338ZM703.333 419V415.675H703.146V405.5H704.983V419H703.333ZM714.19 419.375C712.873 419.375 711.731 419.083 710.765 418.5C709.806 417.917 709.06 417.096 708.527 416.037C707.994 414.979 707.727 413.737 707.727 412.312C707.727 410.837 707.99 409.562 708.515 408.487C709.04 407.412 709.777 406.583 710.727 406C711.685 405.417 712.815 405.125 714.115 405.125C715.448 405.125 716.585 405.433 717.527 406.05C718.469 406.658 719.181 407.533 719.665 408.675C720.148 409.817 720.369 411.179 720.327 412.762H718.452V412.113C718.419 410.362 718.04 409.042 717.315 408.15C716.598 407.258 715.548 406.812 714.165 406.812C712.715 406.812 711.602 407.283 710.827 408.225C710.06 409.167 709.677 410.508 709.677 412.25C709.677 413.95 710.06 415.271 710.827 416.212C711.602 417.146 712.698 417.612 714.115 417.612C715.081 417.612 715.923 417.392 716.64 416.95C717.365 416.5 717.935 415.854 718.352 415.012L720.065 415.675C719.531 416.85 718.744 417.762 717.702 418.412C716.669 419.054 715.498 419.375 714.19 419.375ZM709.027 412.762V411.225H719.34V412.762H709.027ZM728.701 419.375C727.343 419.375 726.193 419.071 725.251 418.462C724.309 417.854 723.593 417.017 723.101 415.95C722.618 414.875 722.368 413.642 722.351 412.25C722.368 410.833 722.626 409.592 723.126 408.525C723.626 407.45 724.347 406.617 725.289 406.025C726.23 405.425 727.372 405.125 728.714 405.125C730.08 405.125 731.268 405.458 732.276 406.125C733.293 406.792 733.989 407.704 734.364 408.862L732.564 409.437C732.247 408.629 731.743 408.004 731.051 407.562C730.368 407.112 729.584 406.887 728.701 406.887C727.709 406.887 726.889 407.117 726.239 407.575C725.589 408.025 725.105 408.654 724.789 409.462C724.472 410.271 724.309 411.2 724.301 412.25C724.318 413.867 724.693 415.167 725.426 416.15C726.159 417.125 727.251 417.612 728.701 417.612C729.618 417.612 730.397 417.404 731.039 416.987C731.689 416.562 732.18 415.946 732.514 415.137L734.364 415.687C733.864 416.887 733.13 417.804 732.164 418.437C731.197 419.063 730.043 419.375 728.701 419.375ZM738.565 403.375H736.99L738.478 399.5H740.053L738.565 403.375ZM736.828 419V405.5H738.665V419H736.828ZM746.063 419L741.163 405.5H743.025L747.013 416.6L750.975 405.5H752.863L747.963 419H746.063ZM760.332 419.375C759.015 419.375 757.874 419.083 756.907 418.5C755.949 417.917 755.203 417.096 754.67 416.037C754.136 414.979 753.87 413.737 753.87 412.312C753.87 410.837 754.132 409.562 754.657 408.487C755.182 407.412 755.92 406.583 756.87 406C757.828 405.417 758.957 405.125 760.257 405.125C761.59 405.125 762.728 405.433 763.67 406.05C764.611 406.658 765.324 407.533 765.807 408.675C766.29 409.817 766.511 411.179 766.47 412.762H764.595V412.113C764.561 410.362 764.182 409.042 763.457 408.15C762.74 407.258 761.69 406.812 760.307 406.812C758.857 406.812 757.745 407.283 756.97 408.225C756.203 409.167 755.82 410.508 755.82 412.25C755.82 413.95 756.203 415.271 756.97 416.212C757.745 417.146 758.84 417.612 760.257 417.612C761.224 417.612 762.065 417.392 762.782 416.95C763.507 416.5 764.078 415.854 764.495 415.012L766.207 415.675C765.674 416.85 764.886 417.762 763.845 418.412C762.811 419.054 761.64 419.375 760.332 419.375ZM755.17 412.762V411.225H765.482V412.762H755.17ZM769.494 402.937V400.875H771.331V402.937H769.494ZM769.494 419V405.5H771.331V419H769.494ZM780.116 419.363C778.533 419.363 777.229 419.021 776.204 418.337C775.187 417.654 774.562 416.704 774.329 415.487L776.204 415.175C776.404 415.942 776.858 416.554 777.566 417.012C778.283 417.462 779.166 417.687 780.216 417.687C781.241 417.687 782.049 417.475 782.641 417.05C783.233 416.617 783.529 416.029 783.529 415.287C783.529 414.871 783.433 414.533 783.241 414.275C783.058 414.008 782.679 413.762 782.104 413.537C781.529 413.312 780.67 413.046 779.529 412.737C778.304 412.404 777.345 412.071 776.654 411.737C775.962 411.404 775.47 411.021 775.179 410.587C774.887 410.146 774.741 409.608 774.741 408.975C774.741 408.208 774.958 407.537 775.391 406.962C775.824 406.379 776.424 405.929 777.191 405.612C777.958 405.287 778.849 405.125 779.866 405.125C780.883 405.125 781.791 405.292 782.591 405.625C783.399 405.95 784.049 406.408 784.541 407C785.033 407.592 785.324 408.279 785.416 409.062L783.541 409.4C783.416 408.608 783.02 407.983 782.354 407.525C781.695 407.058 780.858 406.817 779.841 406.8C778.883 406.775 778.104 406.958 777.504 407.35C776.904 407.733 776.604 408.246 776.604 408.887C776.604 409.246 776.712 409.554 776.929 409.812C777.145 410.062 777.537 410.3 778.104 410.525C778.679 410.75 779.495 410.996 780.554 411.262C781.795 411.579 782.77 411.912 783.479 412.262C784.187 412.612 784.691 413.025 784.991 413.5C785.291 413.975 785.441 414.562 785.441 415.262C785.441 416.537 784.966 417.542 784.016 418.275C783.074 419 781.774 419.363 780.116 419.363ZM789.463 419V416.937H791.301V419H789.463ZM789.463 414.5V401H791.301V414.5H789.463Z" fill="black"/>
<path d="M609.642 319V291H627.922V295.12H614.762V302.8H626.722V306.8H614.762V314.88H627.922V319H609.642ZM639.287 319V295.12H631.127V291H652.607V295.12H644.407V319H639.287ZM665.608 319.48C663.555 319.48 661.741 319.133 660.168 318.44C658.595 317.72 657.355 316.707 656.448 315.4C655.541 314.067 655.075 312.453 655.048 310.56H660.448C660.501 311.867 660.968 312.973 661.848 313.88C662.755 314.76 663.995 315.2 665.568 315.2C666.928 315.2 668.008 314.88 668.808 314.24C669.608 313.573 670.008 312.693 670.008 311.6C670.008 310.453 669.648 309.56 668.928 308.92C668.235 308.28 667.301 307.76 666.128 307.36C664.955 306.96 663.701 306.533 662.368 306.08C660.208 305.333 658.555 304.373 657.408 303.2C656.288 302.027 655.728 300.467 655.728 298.52C655.701 296.867 656.088 295.453 656.888 294.28C657.715 293.08 658.835 292.16 660.248 291.52C661.661 290.853 663.288 290.52 665.128 290.52C666.995 290.52 668.635 290.853 670.048 291.52C671.488 292.187 672.608 293.12 673.408 294.32C674.235 295.52 674.675 296.947 674.728 298.6H669.248C669.221 297.613 668.835 296.747 668.088 296C667.368 295.227 666.355 294.84 665.048 294.84C663.928 294.813 662.981 295.093 662.208 295.68C661.461 296.24 661.088 297.067 661.088 298.16C661.088 299.093 661.381 299.84 661.968 300.4C662.555 300.933 663.355 301.387 664.368 301.76C665.381 302.133 666.541 302.533 667.848 302.96C669.235 303.44 670.501 304 671.648 304.64C672.795 305.28 673.715 306.133 674.408 307.2C675.101 308.24 675.448 309.587 675.448 311.24C675.448 312.707 675.075 314.067 674.328 315.32C673.581 316.573 672.475 317.587 671.008 318.36C669.541 319.107 667.741 319.48 665.608 319.48Z" fill="black"/>
<path d="M689.447 319V291H707.727V295.12H694.567V302.8H706.527V306.8H694.567V314.88H707.727V319H689.447ZM717.812 319L710.532 299.16H715.892L720.932 314.16L725.972 299.16H731.332L724.012 319H717.812ZM743.224 319.48C741.224 319.48 739.451 319.053 737.904 318.2C736.358 317.347 735.144 316.147 734.264 314.6C733.384 313.053 732.944 311.267 732.944 309.24C732.944 307.187 733.371 305.36 734.224 303.76C735.104 302.16 736.304 300.92 737.824 300.04C739.371 299.133 741.184 298.68 743.264 298.68C745.211 298.68 746.931 299.107 748.424 299.96C749.918 300.813 751.078 301.987 751.904 303.48C752.758 304.947 753.184 306.587 753.184 308.4C753.184 308.693 753.171 309 753.144 309.32C753.144 309.64 753.131 309.973 753.104 310.32H738.024C738.131 311.867 738.664 313.08 739.624 313.96C740.611 314.84 741.798 315.28 743.184 315.28C744.224 315.28 745.091 315.053 745.784 314.6C746.504 314.12 747.038 313.507 747.384 312.76H752.584C752.211 314.013 751.584 315.16 750.704 316.2C749.851 317.213 748.784 318.013 747.504 318.6C746.251 319.187 744.824 319.48 743.224 319.48ZM743.264 302.84C742.011 302.84 740.904 303.2 739.944 303.92C738.984 304.613 738.371 305.68 738.104 307.12H747.984C747.904 305.813 747.424 304.773 746.544 304C745.664 303.227 744.571 302.84 743.264 302.84ZM757.491 319V299.16H762.011L762.411 302.52C763.024 301.347 763.904 300.413 765.051 299.72C766.224 299.027 767.597 298.68 769.171 298.68C771.624 298.68 773.531 299.453 774.891 301C776.251 302.547 776.931 304.813 776.931 307.8V319H771.811V308.28C771.811 306.573 771.464 305.267 770.771 304.36C770.077 303.453 768.997 303 767.531 303C766.091 303 764.904 303.507 763.971 304.52C763.064 305.533 762.611 306.947 762.611 308.76V319H757.491ZM790.667 319C788.587 319 786.92 318.493 785.667 317.48C784.413 316.467 783.787 314.667 783.787 312.08V303.44H780.387V299.16H783.787L784.387 293.84H788.907V299.16H794.267V303.44H788.907V312.12C788.907 313.08 789.107 313.747 789.507 314.12C789.933 314.467 790.653 314.64 791.667 314.64H794.147V319H790.667ZM806.863 319.48C805.103 319.48 803.556 319.2 802.223 318.64C800.889 318.053 799.823 317.253 799.023 316.24C798.223 315.227 797.743 314.053 797.583 312.72H802.743C802.903 313.493 803.329 314.16 804.023 314.72C804.743 315.253 805.663 315.52 806.783 315.52C807.903 315.52 808.716 315.293 809.223 314.84C809.756 314.387 810.023 313.867 810.023 313.28C810.023 312.427 809.649 311.853 808.903 311.56C808.156 311.24 807.116 310.933 805.783 310.64C804.929 310.453 804.063 310.227 803.183 309.96C802.303 309.693 801.489 309.36 800.743 308.96C800.023 308.533 799.436 308 798.983 307.36C798.529 306.693 798.303 305.88 798.303 304.92C798.303 303.16 798.996 301.68 800.383 300.48C801.796 299.28 803.769 298.68 806.303 298.68C808.649 298.68 810.516 299.227 811.903 300.32C813.316 301.413 814.156 302.92 814.423 304.84H809.583C809.289 303.373 808.183 302.64 806.263 302.64C805.303 302.64 804.556 302.827 804.023 303.2C803.516 303.573 803.263 304.04 803.263 304.6C803.263 305.187 803.649 305.653 804.423 306C805.196 306.347 806.223 306.667 807.503 306.96C808.889 307.28 810.156 307.64 811.303 308.04C812.476 308.413 813.409 308.987 814.103 309.76C814.796 310.507 815.143 311.587 815.143 313C815.169 314.227 814.849 315.333 814.183 316.32C813.516 317.307 812.556 318.08 811.303 318.64C810.049 319.2 808.569 319.48 806.863 319.48Z" fill="#01A199"/>
<rect x="1153.78" y="37.2811" width="143" height="143" transform="rotate(-30 1153.78 37.2811)" stroke="url(#paint4_linear_246_34)" stroke-width="7"/>
<rect x="1292.05" y="70.8862" width="143" height="143" transform="rotate(-10 1292.05 70.8862)" stroke="url(#paint5_linear_246_34)" stroke-width="7"/>
<rect x="-47.9454" y="-10.1138" width="143" height="143" transform="rotate(-10 -47.9454 -10.1138)" stroke="url(#paint6_linear_246_34)" stroke-width="7"/>
<rect x="-100.069" y="447.85" width="143" height="143" transform="rotate(-40 -100.069 447.85)" stroke="url(#paint7_linear_246_34)" stroke-width="7"/>
<rect x="316.931" y="658.85" width="143" height="143" transform="rotate(-40 316.931 658.85)" stroke="url(#paint8_linear_246_34)" stroke-width="7"/>
<rect x="902.486" y="632.862" width="143" height="143" transform="rotate(-70 902.486 632.862)" stroke="url(#paint9_linear_246_34)" stroke-width="7"/>
<rect x="533.486" y="15.862" width="143" height="143" transform="rotate(-70 533.486 15.862)" stroke="url(#paint10_linear_246_34)" stroke-width="7"/>
<rect x="1.0546" y="503.886" width="143" height="143" transform="rotate(-10 1.0546 503.886)" stroke="url(#paint11_linear_246_34)" stroke-width="7"/>
<rect x="56.486" y="113.862" width="143" height="143" transform="rotate(-70 56.486 113.862)" stroke="url(#paint12_linear_246_34)" stroke-width="7"/>
<rect x="1256.49" y="554.395" width="143" height="143" transform="rotate(-20 1256.49 554.395)" stroke="url(#paint13_linear_246_34)" stroke-width="7"/>
<rect x="1284.78" y="497.623" width="143" height="143" transform="rotate(-60 1284.78 497.623)" stroke="url(#paint14_linear_246_34)" stroke-width="7"/>
</g>
<defs>
<linearGradient id="paint0_linear_246_34" x1="797.529" y1="178.44" x2="769.249" y2="252.996" gradientUnits="userSpaceOnUse">
<stop offset="0.0723327" stop-color="#01A199"/>
<stop offset="0.0738086" stop-color="#01B5AC"/>
<stop offset="0.391193" stop-color="#01B5AC"/>
<stop offset="0.403304" stop-color="#01A199"/>
</linearGradient>
<linearGradient id="paint1_linear_246_34" x1="713.534" y1="213.405" x2="803.516" y2="213.405" gradientUnits="userSpaceOnUse">
<stop offset="0.409233" stop-color="#01B5AC"/>
<stop offset="0.410167" stop-color="#019D95"/>
</linearGradient>
<linearGradient id="paint2_linear_246_34" x1="539.795" y1="214.841" x2="629.777" y2="214.841" gradientUnits="userSpaceOnUse">
<stop offset="0.410167" stop-color="#2F2F2F"/>
<stop offset="0.410267"/>
</linearGradient>
<linearGradient id="paint3_linear_246_34" x1="558.188" y1="263.875" x2="794.712" y2="317.864" gradientUnits="userSpaceOnUse">
<stop offset="0.441667" stop-color="#009E95"/>
<stop offset="0.441767" stop-color="#01B5AC"/>
<stop offset="1" stop-color="#01B5AC"/>
</linearGradient>
<linearGradient id="paint4_linear_246_34" x1="1149" y1="36" x2="1278.35" y2="159.034" gradientUnits="userSpaceOnUse">
<stop stop-color="#01B5AC"/>
<stop offset="1" stop-color="#0F6468"/>
</linearGradient>
<linearGradient id="paint5_linear_246_34" x1="1288" y1="68.0471" x2="1417.35" y2="191.081" gradientUnits="userSpaceOnUse">
<stop stop-color="#01B5AC"/>
<stop offset="1" stop-color="#0F6468"/>
</linearGradient>
<linearGradient id="paint6_linear_246_34" x1="-52" y1="-12.9529" x2="77.3539" y2="110.081" gradientUnits="userSpaceOnUse">
<stop stop-color="#01B5AC"/>
<stop offset="1" stop-color="#0F6468"/>
</linearGradient>
<linearGradient id="paint7_linear_246_34" x1="-105" y1="447.418" x2="24.3539" y2="570.452" gradientUnits="userSpaceOnUse">
<stop stop-color="#01B5AC"/>
<stop offset="1" stop-color="#0F6468"/>
</linearGradient>
<linearGradient id="paint8_linear_246_34" x1="312" y1="658.418" x2="441.354" y2="781.452" gradientUnits="userSpaceOnUse">
<stop stop-color="#01B5AC"/>
<stop offset="1" stop-color="#0F6468"/>
</linearGradient>
<linearGradient id="paint9_linear_246_34" x1="898" y1="634.954" x2="1027.35" y2="757.988" gradientUnits="userSpaceOnUse">
<stop stop-color="#01B5AC"/>
<stop offset="1" stop-color="#0F6468"/>
</linearGradient>
<linearGradient id="paint10_linear_246_34" x1="529" y1="17.9539" x2="658.354" y2="140.988" gradientUnits="userSpaceOnUse">
<stop stop-color="#01B5AC"/>
<stop offset="1" stop-color="#0F6468"/>
</linearGradient>
<linearGradient id="paint11_linear_246_34" x1="-3" y1="501.047" x2="126.354" y2="624.081" gradientUnits="userSpaceOnUse">
<stop stop-color="#01B5AC"/>
<stop offset="1" stop-color="#0F6468"/>
</linearGradient>
<linearGradient id="paint12_linear_246_34" x1="52" y1="115.954" x2="181.354" y2="238.988" gradientUnits="userSpaceOnUse">
<stop stop-color="#01B5AC"/>
<stop offset="1" stop-color="#0F6468"/>
</linearGradient>
<linearGradient id="paint13_linear_246_34" x1="1252" y1="552.303" x2="1381.35" y2="675.337" gradientUnits="userSpaceOnUse">
<stop stop-color="#01B5AC"/>
<stop offset="1" stop-color="#0F6468"/>
</linearGradient>
<linearGradient id="paint14_linear_246_34" x1="1280" y1="498.904" x2="1409.35" y2="621.938" gradientUnits="userSpaceOnUse">
<stop stop-color="#01B5AC"/>
<stop offset="1" stop-color="#0F6468"/>
</linearGradient>
</defs>
</svg>
